<?xml version="1.0" standalone="no"?>
<!DOCTYPE svg PUBLIC "-//W3C//DTD SVG 20010904//EN"
 "http://www.w3.org/TR/2001/REC-SVG-20010904/DTD/svg10.dtd">
<svg version="1.0" xmlns="http://www.w3.org/2000/svg"
 width="260.000000pt" height="260.000000pt" viewBox="0 0 260.000000 260.000000"
 preserveAspectRatio="xMidYMid meet">
<metadata>
Created by potrace 1.11, written by Peter Selinger 2001-2013
</metadata>
<g transform="translate(0.000000,260.000000) scale(0.100000,-0.100000)"
fill="#000000" stroke="none">
<path d="M190 2591 c-69 -21 -130 -73 -166 -141 -18 -34 -19 -82 -19 -1150 l0
-1115 22 -40 c28 -53 78 -99 133 -124 44 -20 62 -20 1132 -21 1063 0 1088 0
1140 20 57 21 113 72 144 130 18 33 19 84 21 1140 l3 1105 -24 50 c-29 61 -76
107 -136 134 -44 20 -61 20 -1135 20 -600 0 -1101 -4 -1115 -8z m1310 -588
c18 -43 46 -106 62 -141 15 -34 28 -65 28 -67 0 -3 14 -37 32 -76 29 -64 33
-70 56 -64 14 3 33 0 46 -8 11 -8 34 -17 50 -21 21 -5 26 -10 18 -18 -8 -8 -2
-21 19 -47 121 -144 98 -392 -54 -588 -77 -98 -169 -152 -255 -149 -83 2 -116
55 -74 117 42 63 80 98 102 92 21 -6 21 -6 2 -27 -38 -41 -74 -106 -68 -121
16 -42 93 1 125 71 30 64 25 114 -12 132 -26 13 -32 11 -66 -12 -66 -46 -160
-147 -186 -199 -24 -50 -32 -95 -24 -127 3 -12 -10 -15 -76 -15 -77 0 -80 1
-77 22 4 25 -34 84 -98 153 -174 187 -263 287 -276 308 0 1 -14 -2 -29 -8 -27
-10 -27 -10 -13 12 10 16 17 61 20 138 5 90 11 126 28 163 33 71 133 158 237
207 48 23 96 46 106 51 15 8 17 4 17 -33 0 -89 41 -177 102 -219 l33 -22 -27
29 c-124 137 -36 430 156 520 28 13 54 24 57 24 3 0 20 -35 39 -77z m-212
-1341 c24 -2 24 -1 1 -94 -11 -43 -32 -53 -94 -44 l-42 7 -7 60 c-3 34 -4 64
-1 68 3 6 74 8 143 3z"/>
</g>
</svg>
