<?xml version="1.0" encoding="utf-8"?>
<!-- Generator: Adobe Illustrator 16.0.0, SVG Export Plug-In . SVG Version: 6.00 Build 0)  -->
<!DOCTYPE svg PUBLIC "-//W3C//DTD SVG 1.0//EN" "http://www.w3.org/TR/2001/REC-SVG-20010904/DTD/svg10.dtd">
<svg version="1.0" id="Layer_1" xmlns="http://www.w3.org/2000/svg" xmlns:xlink="http://www.w3.org/1999/xlink" x="0px" y="0px"
	 width="14px" height="14px" viewBox="0 0 14 14" enable-background="new 0 0 14 14" xml:space="preserve">
<path fill="#3D3B3C" d="M7.707,7l3.146-3.146c0.195-0.195,0.195-0.512,0-0.707s-0.512-0.195-0.707,0L7,6.293L3.854,3.146
	c-0.195-0.195-0.512-0.195-0.707,0s-0.195,0.512,0,0.707L6.293,7l-3.146,3.146c-0.195,0.195-0.195,0.512,0,0.707
	C3.244,10.951,3.372,11,3.5,11s0.256-0.049,0.354-0.146L7,7.707l3.146,3.146C10.244,10.951,10.372,11,10.5,11
	s0.256-0.049,0.354-0.146c0.195-0.195,0.195-0.512,0-0.707L7.707,7z"/>
</svg>
