<?xml version="1.0" encoding="utf-8"?>
<!-- Generator: Adobe Illustrator 16.0.0, SVG Export Plug-In . SVG Version: 6.00 Build 0)  -->
<!DOCTYPE svg PUBLIC "-//W3C//DTD SVG 1.0//EN" "http://www.w3.org/TR/2001/REC-SVG-20010904/DTD/svg10.dtd">
<svg version="1.0" id="Layer_1" xmlns="http://www.w3.org/2000/svg" xmlns:xlink="http://www.w3.org/1999/xlink" x="0px" y="0px"
	 width="24px" height="24px" viewBox="0 0 24 24" enable-background="new 0 0 24 24" xml:space="preserve">
<g>
	<path fill="#4098B1" d="M21.414,4.586l-2-2C19.039,2.211,18.529,2,18,2H4C2.896,2,2,2.896,2,4v16c0,1.104,0.896,2,2,2h16
		c1.104,0,2-0.896,2-2V6C22,5.47,21.789,4.961,21.414,4.586z M7,4h10v3H7V4z M20,20H4V4h2v3c0,0.553,0.448,1,1,1h10
		c0.553,0,1-0.447,1-1V4l2,2V20z"/>
	<path fill="#4098B1" d="M12,10c-1.654,0-3,1.346-3,3s1.346,3,3,3s3-1.346,3-3S13.654,10,12,10z M12,15c-1.104,0-2-0.896-2-2
		s0.896-2,2-2s2,0.896,2,2S13.104,15,12,15z"/>
</g>
</svg>
