<?xml version="1.0" encoding="utf-8"?>
<!-- Generator: Adobe Illustrator 16.0.0, SVG Export Plug-In . SVG Version: 6.00 Build 0)  -->
<!DOCTYPE svg PUBLIC "-//W3C//DTD SVG 1.0//EN" "http://www.w3.org/TR/2001/REC-SVG-20010904/DTD/svg10.dtd">
<svg version="1.0" id="Layer_1" xmlns="http://www.w3.org/2000/svg" xmlns:xlink="http://www.w3.org/1999/xlink" x="0px" y="0px"
	 width="28px" height="28px" viewBox="0 0 28 28" enable-background="new 0 0 28 28" xml:space="preserve">
<path fill="#9DBFDD" d="M17,11c3.309,0,6,2.691,6,6s-2.691,6-6,6s-6-2.691-6-6S13.691,11,17,11 M17,10c-3.866,0-7,3.135-7,7
	c0,3.867,3.134,7,7,7s7-3.133,7-7C24,13.135,20.866,10,17,10L17,10z"/>
<g>
	<path fill="#6D9FCC" d="M17,11V6c0-0.553-0.447-1-1-1H6C5.448,5,5,5.447,5,6v10c0,0.553,0.448,1,1,1h5C11,13.691,13.691,11,17,11z"
		/>
</g>
<path fill="#3C7FBB" d="M16,6v4.071c-3.061,0.44-5.489,2.868-5.929,5.929H6V6H16 M16,5H6C5.448,5,5,5.447,5,6v10
	c0,0.553,0.448,1,1,1h5c0-3.309,2.691-6,6-6V6C17,5.447,16.553,5,16,5L16,5z"/>
</svg>
