<?xml version="1.0" encoding="utf-8"?>
<!-- Generator: Adobe Illustrator 16.0.0, SVG Export Plug-In . SVG Version: 6.00 Build 0)  -->
<!DOCTYPE svg PUBLIC "-//W3C//DTD SVG 1.0//EN" "http://www.w3.org/TR/2001/REC-SVG-20010904/DTD/svg10.dtd">
<svg version="1.0" id="Layer_1" xmlns="http://www.w3.org/2000/svg" xmlns:xlink="http://www.w3.org/1999/xlink" x="0px" y="0px"
	 width="24px" height="24px" viewBox="0 0 24 24" enable-background="new 0 0 24 24" xml:space="preserve">
<g>
	<path fill="#FFFFFF" d="M12,2c1.105,0,2.146,0.431,2.93,1.214C15.814,4.099,16,5.295,16,6.143C16,9.373,14.206,12,12,12
		c-2.206,0-4-2.627-4-5.857C8,5.295,8.186,4.1,9.071,3.214C9.854,2.431,10.894,2,12,2 M12,1c-1.42,0-2.705,0.576-3.636,1.507
		S7,4.723,7,6.143C7,9.931,9.16,13,12,13s5-3.069,5-6.857c0-1.42-0.433-2.705-1.363-3.636C14.705,1.576,13.42,1,12,1L12,1z"/>
	<path fill="#FFFFFF" d="M7.807,15.003C8.444,15.262,10.398,16,12,16c1.603,0,3.557-0.737,4.193-0.997C19.36,15.109,22,17.812,22,21
		c0,0.552-0.448,1-1,1H3c-0.551,0-1-0.448-1-1C2,17.812,4.64,15.109,7.807,15.003 M16,14c0,0-2.285,1-4,1c-1.714,0-4-1-4-1
		c-3.787,0-7,3.213-7,7c0,1.104,0.896,2,2,2h18c1.104,0,2-0.896,2-2C23,17.213,19.787,14,16,14L16,14z"/>
</g>
</svg>
