<?xml version="1.0" encoding="utf-8"?>
<!-- Generator: Adobe Illustrator 16.0.0, SVG Export Plug-In . SVG Version: 6.00 Build 0)  -->
<!DOCTYPE svg PUBLIC "-//W3C//DTD SVG 1.0//EN" "http://www.w3.org/TR/2001/REC-SVG-20010904/DTD/svg10.dtd">
<svg version="1.0" id="Layer_1" xmlns="http://www.w3.org/2000/svg" xmlns:xlink="http://www.w3.org/1999/xlink" x="0px" y="0px"
	 width="110px" height="73px" viewBox="0 0 110 73" enable-background="new 0 0 110 73" xml:space="preserve">
<g>
	<g>
		<g>
			<polygon fill="#A6CE39" points="55.339,25.039 63.592,25.039 64.166,26.634 58.529,26.634 63.432,40.131 97.383,40.131 
				79.439,26.634 73.803,26.634 73.205,25.039 80.555,25.039 108.6,43.262 60.729,43.262 			"/>
		</g>
		<g>
			<path fill-rule="evenodd" clip-rule="evenodd" fill="#FFFFFF" d="M11.733,1.044c2.655,0,6.307,0.554,7.628,0.881v3.782
				c-2.648-0.966-5.235-1.555-8.273-1.555c-3.526,0-6.043,1.92-6.043,4.813c0,3.086,2.745,4.331,5.111,5.603
				c4.936,2.653,11.408,4.854,11.408,11.825c0,7.097-6.471,9.881-12.384,9.881c-2.584,0-5.654-0.44-8.229-1.047v-3.815
				c2.059,0.639,5.694,1.621,8.93,1.621c4.311,0,6.788-2.357,6.788-5.589c0-8.263-16.069-7.05-16.069-17.721
				C0.6,4.448,4.898,1.044,11.733,1.044z"/>
			<path fill-rule="evenodd" clip-rule="evenodd" fill="#FFFFFF" d="M45.602,36L58.43,1.32h3.205l11.496,28.474
				c1.389,3.438,1.957,4.917,4.816,4.917L78.697,36h-8.725L59.238,8.417L49.025,36H45.602z"/>
			<path fill-rule="evenodd" clip-rule="evenodd" fill="#FFFFFF" d="M43.44,36H24V1.32h4.794v27.285
				c0,1.967,0.235,4.186,3.296,4.186h12.537L43.44,36z"/>
		</g>
		<g>
			<g>
				<polygon fill-rule="evenodd" clip-rule="evenodd" fill="#FFFFFF" points="37.093,72 37.093,64.291 38.701,64.291 41.673,69.967 
					41.696,64.291 42.891,64.291 42.891,72 41.428,72 38.311,66.045 38.288,72 				"/>
				<polygon fill-rule="evenodd" clip-rule="evenodd" fill="#FFFFFF" points="24,72 24,63.365 25.464,63.365 25.464,70.887 
					28.855,70.887 28.855,72 				"/>
				<path fill-rule="evenodd" clip-rule="evenodd" fill="#FFFFFF" d="M29.364,72l2.637-7.709h1.576L36.202,72h-1.363l-0.67-2.09
					h-2.771L30.728,72H29.364z M32.772,65.531l-1.062,3.385h2.145l-1.061-3.385H32.772z"/>
				<path fill-rule="evenodd" clip-rule="evenodd" fill="#FFFFFF" d="M44.571,72v-7.709h1.911c2.469,0,3.385,1.072,3.385,3.832
					c0,3.564-1.787,3.877-3.385,3.877H44.571z M45.878,65.218v5.854h0.604c1.318,0,1.944-0.581,1.944-2.949
					c0-1.877-0.324-2.905-1.944-2.905H45.878z"/>
			</g>
			<g>
				<polygon fill-rule="evenodd" clip-rule="evenodd" fill="#FFFFFF" points="104.746,72 104.746,68.424 102.209,64.291 
					103.695,64.291 105.404,67.062 107.115,64.291 108.6,64.291 106.053,68.424 106.053,72 				"/>
				<path fill-rule="evenodd" clip-rule="evenodd" fill="#FFFFFF" d="M66.85,64.291v5.352c0,1.698-1.016,2.48-2.67,2.48
					c-1.586,0-2.682-0.782-2.682-2.48v-5.352h1.309v5.352c0,0.883,0.346,1.553,1.373,1.553c1.018,0,1.363-0.67,1.363-1.553v-5.352
					H66.85z"/>
				<polygon fill-rule="evenodd" clip-rule="evenodd" fill="#FFFFFF" points="69.818,72 69.818,65.285 67.885,65.285 67.885,64.291 
					73.059,64.291 73.059,65.285 71.125,65.285 71.125,72 				"/>
				<polygon fill-rule="evenodd" clip-rule="evenodd" fill="#FFFFFF" points="74.094,72 74.094,64.291 75.4,64.291 75.4,67.486 
					78.172,67.486 78.172,64.291 79.479,64.291 79.479,72 78.172,72 78.172,68.48 75.4,68.48 75.4,72 				"/>
				<rect x="94.326" y="64.291" fill-rule="evenodd" clip-rule="evenodd" fill="#FFFFFF" width="1.307" height="7.709"/>
				<polygon fill-rule="evenodd" clip-rule="evenodd" fill="#FFFFFF" points="98.602,72 98.602,65.285 96.668,65.285 96.668,64.291 
					101.842,64.291 101.842,65.285 99.908,65.285 99.908,72 				"/>
				<path fill-rule="evenodd" clip-rule="evenodd" fill="#FFFFFF" d="M88.09,72v-7.709h2.334c1.453,0,2.48,0.514,2.48,2.021
					c0,1.219-0.736,1.598-1.529,1.788c1.072,0.257,1.195,0.916,1.373,1.731L93.217,72h-1.328l-0.357-1.665
					c-0.27-1.229-0.426-1.643-1.621-1.643h-0.514V72H88.09z M89.396,65.218v2.548h0.514c0.816,0,1.666-0.168,1.666-1.308
					c0-0.804-0.414-1.24-1.152-1.24H89.396z"/>
				<path fill-rule="evenodd" clip-rule="evenodd" fill="#FFFFFF" d="M83.732,72.123c-2.414,0-3.117-1.732-3.117-3.979
					c0-2.245,0.703-3.977,3.117-3.977c2.402,0,3.117,1.731,3.117,3.977C86.85,70.391,86.135,72.123,83.732,72.123z M82.057,68.145
					c0,1.643,0.346,3.051,1.676,3.051c1.318,0,1.676-1.408,1.676-3.051c0-1.642-0.357-3.05-1.676-3.05
					C82.402,65.095,82.057,66.503,82.057,68.145z"/>
				<path fill-rule="evenodd" clip-rule="evenodd" fill="#FFFFFF" d="M57.145,64.754l-1.189,3.792h2.402l-1.188-3.792H57.145z
					 M53.328,72l2.954-8.635h1.764L60.986,72h-1.527l-0.75-2.34h-3.104L54.854,72H53.328z"/>
			</g>
		</g>
	</g>
	<g>
		<path fill-rule="evenodd" clip-rule="evenodd" fill="#FFFFFF" d="M46.635,54.539v3.91c-0.291,0.224-1.207,0.703-2.424,0.703
			c-2.302,0-3.285-1.72-3.285-3.988c0-2.469,0.849-3.966,3.05-3.966c1.799,0,2.57,0.894,2.57,2.156h-1.453
			c0-0.559-0.279-1.229-1.117-1.229c-1.33,0-1.609,1.431-1.609,3.039c0,1.408,0.279,3.062,1.844,3.062
			c0.625,0,0.994-0.167,1.117-0.302v-2.458h-1.453v-0.927H46.635z"/>
		<polygon fill-rule="evenodd" clip-rule="evenodd" fill="#FFFFFF" points="33.906,59.03 33.906,51.32 35.515,51.32 38.487,56.996 
			38.487,51.32 39.705,51.32 39.705,59.03 38.241,59.03 35.124,53.075 35.124,59.03 		"/>
		<rect x="30.919" y="51.32" fill-rule="evenodd" clip-rule="evenodd" fill="#FFFFFF" width="1.308" height="7.71"/>
		<polygon fill-rule="evenodd" clip-rule="evenodd" fill="#FFFFFF" points="74.357,59.03 74.357,51.32 78.859,51.32 78.859,52.315 
			75.664,52.315 75.664,54.539 78.691,54.539 78.691,55.533 75.664,55.533 75.664,58.035 78.949,58.035 78.949,59.03 		"/>
		<g>
			<path fill-rule="evenodd" clip-rule="evenodd" fill="#FFFFFF" d="M29.082,50.494v1.352c-0.576-0.225-1.29-0.551-2.166-0.551
				c-0.726,0-1.302,0.326-1.302,1.064c0,1.527,4.118,1.752,4.118,4.355c0,1.615-1.302,2.453-3.179,2.453
				c-1.114,0-2.128-0.3-2.391-0.362v-1.515c0.513,0.312,1.352,0.838,2.44,0.838c1.151,0,1.515-0.638,1.515-1.201
				c0-1.877-4.118-1.99-4.118-4.443c0-1.539,1.339-2.228,2.967-2.228C27.93,50.257,28.769,50.432,29.082,50.494z"/>
		</g>
		<path fill-rule="evenodd" clip-rule="evenodd" fill="#FFFFFF" d="M47.42,59.03l2.636-7.71h1.576l2.625,7.71h-1.363l-0.67-2.089
			h-2.771l-0.67,2.089H47.42z M50.828,52.561l-1.062,3.386h2.146l-1.062-3.386H50.828z"/>
		<path fill-rule="evenodd" clip-rule="evenodd" fill="#FFFFFF" d="M55.148,59.03v-7.71h1.989c1.195,0,2.703,0.18,2.703,2.225
			c0,1.843-1.631,2.2-2.703,2.2h-0.682v3.285H55.148z M56.455,52.248v2.57h0.682c0.781,0,1.375-0.392,1.375-1.273
			c0-0.995-0.516-1.297-1.375-1.297H56.455z"/>
		<path fill-rule="evenodd" clip-rule="evenodd" fill="#FFFFFF" d="M63.764,59.152c-2.414,0-3.117-1.73-3.117-3.977
			s0.703-3.978,3.117-3.978c2.4,0,3.117,1.731,3.117,3.978S66.164,59.152,63.764,59.152z M62.088,55.176
			c0,1.643,0.346,3.05,1.676,3.05c1.318,0,1.676-1.407,1.676-3.05s-0.357-3.051-1.676-3.051
			C62.434,52.125,62.088,53.533,62.088,55.176z"/>
		<path fill-rule="evenodd" clip-rule="evenodd" fill="#FFFFFF" d="M68.119,59.03v-7.71h2.336c1.453,0,2.48,0.515,2.48,2.023
			c0,1.217-0.738,1.598-1.531,1.787c1.072,0.257,1.195,0.916,1.375,1.731l0.469,2.168h-1.33l-0.357-1.665
			c-0.268-1.229-0.424-1.643-1.619-1.643h-0.514v3.308H68.119z M69.428,52.248v2.547h0.514c0.814,0,1.664-0.167,1.664-1.307
			c0-0.805-0.412-1.24-1.15-1.24H69.428z"/>
	</g>
</g>
</svg>
