<?xml version="1.0" encoding="utf-8"?>
<!-- Generator: Adobe Illustrator 16.0.0, SVG Export Plug-In . SVG Version: 6.00 Build 0)  -->
<!DOCTYPE svg PUBLIC "-//W3C//DTD SVG 1.0//EN" "http://www.w3.org/TR/2001/REC-SVG-20010904/DTD/svg10.dtd">
<svg version="1.0" id="Layer_1" xmlns="http://www.w3.org/2000/svg" xmlns:xlink="http://www.w3.org/1999/xlink" x="0px" y="0px"
	 width="24px" height="24px" viewBox="0 0 24 24" enable-background="new 0 0 24 24" xml:space="preserve">
<rect x="499" y="1028" width="10" height="5"/>
<g>
	<circle cx="504" cy="1039" r="2"/>
	<path d="M513.414,1030.586l-2-2c-0.375-0.375-0.884-0.586-1.414-0.586v5c0,0.553-0.447,1-1,1h-10c-0.553,0-1-0.447-1-1v-5h-2
		c-1.104,0-2,0.896-2,2v16c0,1.104,0.896,2,2,2h16c1.104,0,2-0.896,2-2v-14C514,1031.47,513.789,1030.961,513.414,1030.586z
		 M504,1042c-1.654,0-3-1.346-3-3s1.346-3,3-3s3,1.346,3,3S505.654,1042,504,1042z"/>
</g>
<rect x="499" y="1028" width="10" height="5"/>
<g>
	<circle cx="504" cy="1039" r="2"/>
	<path d="M513.414,1030.586l-2-2c-0.375-0.375-0.884-0.586-1.414-0.586v5c0,0.553-0.447,1-1,1h-10c-0.553,0-1-0.447-1-1v-5h-2
		c-1.104,0-2,0.896-2,2v16c0,1.104,0.896,2,2,2h16c1.104,0,2-0.896,2-2v-14C514,1031.47,513.789,1030.961,513.414,1030.586z
		 M504,1042c-1.654,0-3-1.346-3-3s1.346-3,3-3s3,1.346,3,3S505.654,1042,504,1042z"/>
</g>
<rect x="499" y="1028" width="10" height="5"/>
<g>
	<circle cx="504" cy="1039" r="2"/>
	<path d="M513.414,1030.586l-2-2c-0.375-0.375-0.884-0.586-1.414-0.586v5c0,0.553-0.447,1-1,1h-10c-0.553,0-1-0.447-1-1v-5h-2
		c-1.104,0-2,0.896-2,2v16c0,1.104,0.896,2,2,2h16c1.104,0,2-0.896,2-2v-14C514,1031.47,513.789,1030.961,513.414,1030.586z
		 M504,1042c-1.654,0-3-1.346-3-3s1.346-3,3-3s3,1.346,3,3S505.654,1042,504,1042z"/>
</g>
<rect x="7" y="2" fill="#8DBA34" width="10" height="5"/>
<g>
	<circle fill="#8DBA34" cx="12" cy="13" r="2"/>
	<path fill="#8DBA34" d="M21.414,4.586l-2-2C19.039,2.211,18.53,2,18,2v5c0,0.553-0.447,1-1,1H7C6.448,8,6,7.553,6,7V2H4
		C2.896,2,2,2.896,2,4v16c0,1.104,0.896,2,2,2h16c1.104,0,2-0.896,2-2V6C22,5.47,21.789,4.961,21.414,4.586z M12,16
		c-1.654,0-3-1.346-3-3s1.346-3,3-3s3,1.346,3,3S13.654,16,12,16z"/>
</g>
</svg>
