<?xml version="1.0" encoding="utf-8"?>
<!-- Generator: Adobe Illustrator 16.0.0, SVG Export Plug-In . SVG Version: 6.00 Build 0)  -->
<!DOCTYPE svg PUBLIC "-//W3C//DTD SVG 1.0//EN" "http://www.w3.org/TR/2001/REC-SVG-20010904/DTD/svg10.dtd">
<svg version="1.0" id="Layer_1" xmlns="http://www.w3.org/2000/svg" xmlns:xlink="http://www.w3.org/1999/xlink" x="0px" y="0px"
	 width="50px" height="50px" viewBox="0 0 50 50" enable-background="new 0 0 50 50" xml:space="preserve">
<g>
	<path fill="#FFFFFF" d="M1,5.8C1,3.149,3.148,1,5.8,1h38.4c2.65,0,4.8,2.147,4.8,4.8v38.4c0,2.65-2.148,4.8-4.8,4.8H5.8
		C3.149,49,1,46.853,1,44.2V5.8L1,5.8z M23.575,36.682c-1.5,0-1.602,0.189-1.602,0.189l0.369,2.308c0,0,0.328,0.222,1.185,0.222
		c0.856,0,1.136-0.222,1.136-0.222l0.505-2.296C25.167,36.883,25.075,36.682,23.575,36.682L23.575,36.682L23.575,36.682z
		 M33.912,19.57l-0.082-0.064c0,0,0.146-0.068,0.227-0.146c0.154-0.149,0.245-0.337,0.215-0.316
		c-0.267,0.179-0.788,0.092-0.788,0.092s0.181-0.033,0.288-0.103c0.162-0.104,0.209-0.25,0.189-0.235
		c-0.131,0.089-0.271,0.115-0.369,0.115c-0.617,0.002-0.717-0.528-1.287-0.528c-0.234,0-0.728,0.24-0.88,0.002
		c-0.84-1.992-2.104-4.873-3.336-7.787c-5.088,1.031-7.351,9.596-2.403,11.117c-2.69-0.768-3.993-3.397-3.584-5.683
		c-1.842,0.627-4.241,1.605-6.115,3.866c-1.123,1.354-1.118,2.803-1.118,5.669c-0.056,0.881-0.788,1.216-0.788,1.216
		s0.873,0.036,1.152-0.408c1.202,2.032,7.007,7.26,7.007,8.455c0,0-0.208,0.562-0.145,0.568c0.528,0.062,2.987,0.183,2.987,0.183
		c0.107-0.406-0.14-0.691-0.14-0.977c0-2.908,4.167-5.605,4.656-5.937c0.175,0.104,0.48,0.192,0.629,0.257
		c1.404,0.604-0.221,4.029-1.676,4.029c-1.676,0,0.945-2.751,0.998-2.817c0.174-0.217-0.301-0.016-0.451-0.161
		c-0.092-0.088,0.011-0.325-0.218-0.142c0,0-3.48,2.977-1.02,3.853C32.525,35.348,39.349,24.67,33.912,19.57L33.912,19.57
		L33.912,19.57z"/>
</g>
</svg>
