<?xml version="1.0" encoding="utf-8"?>
<!-- Generator: Adobe Illustrator 16.0.0, SVG Export Plug-In . SVG Version: 6.00 Build 0)  -->
<!DOCTYPE svg PUBLIC "-//W3C//DTD SVG 1.0//EN" "http://www.w3.org/TR/2001/REC-SVG-20010904/DTD/svg10.dtd">
<svg version="1.0" id="Layer_1" xmlns="http://www.w3.org/2000/svg" xmlns:xlink="http://www.w3.org/1999/xlink" x="0px" y="0px"
	 width="28px" height="28px" viewBox="0 0 28 28" enable-background="new 0 0 28 28" xml:space="preserve">
<g>
	<circle fill="#CEDFEE" cx="14" cy="14" r="8.5"/>
	<circle fill="#3C7FBB" cx="14" cy="14" r="1"/>
	<path fill="#3C7FBB" d="M14,6c4.411,0,8,3.589,8,8s-3.59,8-8,8c-4.411,0-8-3.589-8-8S9.588,6,14,6 M14,5c-4.971,0-9,4.029-9,9
		s4.029,9,9,9c4.971,0,9-4.029,9-9S18.971,5,14,5L14,5z"/>
	<rect x="14" y="13.5" fill="#3C7FBB" width="8.5" height="1"/>
</g>
</svg>
