<?xml version="1.0" encoding="utf-8"?>
<!-- Generator: Adobe Illustrator 16.0.0, SVG Export Plug-In . SVG Version: 6.00 Build 0)  -->
<!DOCTYPE svg PUBLIC "-//W3C//DTD SVG 1.0//EN" "http://www.w3.org/TR/2001/REC-SVG-20010904/DTD/svg10.dtd">
<svg version="1.0" id="Layer_1" xmlns="http://www.w3.org/2000/svg" xmlns:xlink="http://www.w3.org/1999/xlink" x="0px" y="0px"
	 width="18px" height="18px" viewBox="0 0 18 18" enable-background="new 0 0 18 18" xml:space="preserve">
<g>
	<path fill="#DCDCDC" d="M9,1C4.582,1,1,4.582,1,9s3.582,8,8,8s8-3.582,8-8S13.418,1,9,1z M9,3.5c0.829,0,1.5,0.672,1.5,1.5
		S9.829,6.5,9,6.5S7.5,5.828,7.5,5S8.171,3.5,9,3.5z M11,14h-1H8H7v-1h1V9H7V8h1h2v1v4h1V14z"/>
</g>
</svg>
