<?xml version="1.0" encoding="utf-8"?>
<!-- Generator: Adobe Illustrator 16.0.0, SVG Export Plug-In . SVG Version: 6.00 Build 0)  -->
<!DOCTYPE svg PUBLIC "-//W3C//DTD SVG 1.0//EN" "http://www.w3.org/TR/2001/REC-SVG-20010904/DTD/svg10.dtd">
<svg version="1.0" id="Layer_1" xmlns="http://www.w3.org/2000/svg" xmlns:xlink="http://www.w3.org/1999/xlink" x="0px" y="0px"
	 width="20px" height="20px" viewBox="-1 -1 20 20" enable-background="new -1 -1 20 20" xml:space="preserve">
<path fill="#3C7FBB" d="M16.707,15.293l-4-4c-0.259-0.259-0.621-0.33-0.952-0.245l-0.176-0.176C12.464,9.827,13,8.477,13,7
	c0-3.313-2.688-6-6-6C3.687,1,1,3.687,1,7c0,3.312,2.687,6,6,6c1.477,0,2.827-0.536,3.872-1.421l0.176,0.176
	c-0.085,0.331-0.014,0.693,0.245,0.952l4,4C15.488,16.902,15.744,17,16,17s0.512-0.098,0.707-0.293
	C17.098,16.316,17.098,15.684,16.707,15.293z M7,12c-2.757,0-5-2.243-5-5s2.243-5,5-5s5,2.243,5,5S9.757,12,7,12z"/>
</svg>
