<?xml version="1.0" encoding="utf-8"?>
<!-- Generator: Adobe Illustrator 16.0.0, SVG Export Plug-In . SVG Version: 6.00 Build 0)  -->
<!DOCTYPE svg PUBLIC "-//W3C//DTD SVG 1.0//EN" "http://www.w3.org/TR/2001/REC-SVG-20010904/DTD/svg10.dtd">
<svg version="1.0" id="Layer_1" xmlns="http://www.w3.org/2000/svg" xmlns:xlink="http://www.w3.org/1999/xlink" x="0px" y="0px"
	 width="24px" height="24px" viewBox="0 0 24 24" enable-background="new 0 0 24 24" xml:space="preserve">
<path fill="#4098B1" d="M13.82,13.82C13.506,14.515,12.812,15,12,15c-1.104,0-2-0.896-2-2c0-0.812,0.485-1.507,1.18-1.82
	l-0.733-0.733C9.583,10.974,9,11.916,9,13c0,1.654,1.346,3,3,3c1.084,0,2.026-0.583,2.554-1.446L13.82,13.82z"/>
<g>
	<path fill="#4098B1" d="M4,20V4L2.586,2.586C2.224,2.947,2,3.447,2,4v16c0,1.104,0.896,2,2,2h16c0.553,0,1.053-0.224,1.414-0.586
		L20,20H4z"/>
	<path fill="#4098B1" d="M8,4h9v3h-6l1,1h5c0.553,0,1-0.447,1-1V4l2,2v10l2,2V6c0-0.53-0.211-1.039-0.586-1.414l-2-2
		C19.039,2.211,18.529,2,18,2H6L8,4z"/>
</g>
<rect x="-2.142" y="10.586" transform="matrix(0.7071 0.7071 -0.7071 0.7071 12 -4.9706)" fill="#59A6BB" width="28.284" height="2.828"/>
</svg>
