<?xml version="1.0" encoding="utf-8"?>
<!-- Generator: Adobe Illustrator 16.0.0, SVG Export Plug-In . SVG Version: 6.00 Build 0)  -->
<!DOCTYPE svg PUBLIC "-//W3C//DTD SVG 1.0//EN" "http://www.w3.org/TR/2001/REC-SVG-20010904/DTD/svg10.dtd">
<svg version="1.0" id="Layer_1" xmlns="http://www.w3.org/2000/svg" xmlns:xlink="http://www.w3.org/1999/xlink" x="0px" y="0px"
	 width="26px" height="18px" viewBox="0 0 26 18" enable-background="new 0 0 26 18" xml:space="preserve">
<path fill="#55555D" d="M22,6V3H3C1.896,3,1,3.896,1,5v9c0,1.104,0.896,2,2,2h20c1.104,0,2-0.896,2-2V6H22z M9,8H5v3h4v1H5H4V8V7h1
	h4V8z M15,8h-4v1h4v1v2h-1h-4v-1h4v-1h-3h-1V8V7h5V8z M21,8h-4v1h4v1v2h-1h-4v-1h4v-1h-3h-1V8V7h5V8z"/>
</svg>
