<?xml version="1.0" encoding="utf-8"?>
<!-- Generator: Adobe Illustrator 16.0.0, SVG Export Plug-In . SVG Version: 6.00 Build 0)  -->
<!DOCTYPE svg PUBLIC "-//W3C//DTD SVG 1.0//EN" "http://www.w3.org/TR/2001/REC-SVG-20010904/DTD/svg10.dtd">
<svg version="1.0" id="Layer_1" xmlns="http://www.w3.org/2000/svg" xmlns:xlink="http://www.w3.org/1999/xlink" x="0px" y="0px"
	 width="58px" height="51px" viewBox="0 0 58 51" enable-background="new 0 0 58 51" xml:space="preserve">
<g>
	<g>
		<g>
			<g>
				<g>
					<path fill="#FFFFFF" d="M37.469,26.436v-9.761c0-2.201-1.395-2.944-2.666-2.944c-1.271,0-2.695,0.744-2.695,2.944v9.761h-4.029
						V10.29h3.936v1.488c1.054-1.117,2.541-1.673,4.029-1.673c1.611,0,2.912,0.527,3.811,1.425c1.303,1.303,1.645,2.819,1.645,4.587
						v10.319H37.469z"/>
					<path fill="#FFFFFF" d="M46.411,19.619c0,2.075,1.27,3.594,3.531,3.594c1.767,0,2.635-0.496,3.657-1.519l2.447,2.386
						c-1.642,1.643-3.221,2.542-6.135,2.542c-3.811,0-7.468-1.734-7.468-8.274c0-5.267,2.851-8.242,7.034-8.242
						c4.492,0,7.034,3.285,7.034,7.716v1.798H46.411z M52.174,15.125c-0.434-0.96-1.332-1.672-2.695-1.672s-2.262,0.712-2.696,1.672
						c-0.249,0.588-0.341,1.023-0.371,1.735h6.136C52.516,16.148,52.422,15.713,52.174,15.125z"/>
				</g>
				<g>
					<g>
						<g>
							<g>
								<path fill="#FFFFFF" d="M29.885,9.65c2.827,6.118-1.237,12.287-9.708,16.303C10.584,30.5,3.281,28.898,1.093,23.5
									c-1.835-4.526,2.611-11.072,10.561-14.896C19.604,4.781,27.835,5.216,29.885,9.65z"/>
								<path fill="#007697" d="M9.937,28.739c-4.36,0-7.627-1.892-8.965-5.19c-1.893-4.67,2.774-11.286,10.625-15.062
									c3.502-1.684,7.224-2.611,10.479-2.611c3.945,0,6.834,1.355,7.926,3.72c2.769,5.992-0.975,12.305-9.771,16.476
									C16.55,27.816,12.99,28.739,9.937,28.739z M22.077,6.137c-3.217,0-6.899,0.918-10.366,2.586
									C3.982,12.439-0.628,18.909,1.214,23.452c1.314,3.242,4.412,5.027,8.723,5.027c3.015,0,6.537-0.914,10.185-2.643
									c8.651-4.103,12.348-10.283,9.646-16.131C28.718,7.437,25.916,6.137,22.077,6.137z"/>
							</g>
							<g>
								<path fill="#007697" d="M27.355,9.094c1.763,2.413-1.85,8.071-8.75,11.648c-6.902,3.579-14.068,4.514-15.938,2.205
									c-2.248-2.771,2.549-9.272,9.45-12.85C19.017,6.519,25.253,6.21,27.355,9.094z"/>
								<path fill="#FFFFFF" d="M6.611,24.339c-1.954,0-3.353-0.453-4.047-1.31c-0.554-0.683-0.719-1.585-0.49-2.682
									c0.703-3.372,4.9-7.731,9.981-10.366c3.688-1.912,7.338-2.965,10.279-2.965c2.4,0,4.172,0.691,5.126,2
									c0.467,0.639,0.586,1.517,0.347,2.538c-0.608,2.587-3.671,6.467-9.143,9.303C14.461,23.038,9.955,24.339,6.611,24.339z
									 M22.334,7.278c-2.9,0-6.508,1.042-10.159,2.936c-5.017,2.601-9.158,6.886-9.846,10.188
									c-0.212,1.016-0.064,1.845,0.438,2.464c0.643,0.793,1.972,1.212,3.844,1.212c3.304,0,7.765-1.29,11.933-3.451
									c5.398-2.798,8.415-6.603,9.009-9.131c0.222-0.945,0.117-1.749-0.304-2.324C26.347,7.932,24.647,7.278,22.334,7.278z"/>
							</g>
							<g>
								<path fill="#007697" d="M27.603,9.568c1.646,2.192-2.096,7.601-8.997,11.179c-6.9,3.576-13.972,4.697-15.73,2.606
									c-2.114-2.511,2.822-8.748,9.722-12.324C19.5,7.452,25.635,6.948,27.603,9.568z"/>
								<path fill="#FFFFFF" d="M6.282,24.532c-1.691,0-2.904-0.378-3.506-1.095c-0.483-0.573-0.634-1.335-0.449-2.264
									c0.628-3.158,5.018-7.569,10.21-10.26c3.891-2.018,7.664-3.128,10.621-3.128c2.139,0,3.711,0.589,4.549,1.704
									c0.403,0.537,0.512,1.277,0.314,2.141c-0.667,2.925-4.514,6.722-9.356,9.232C14.298,23.126,9.553,24.532,6.282,24.532z
									 M23.159,8.046c-2.917,0-6.646,1.101-10.501,3.099c-5.129,2.658-9.46,6.991-10.075,10.08
									c-0.168,0.847-0.037,1.535,0.393,2.044c0.551,0.656,1.695,1.002,3.307,1.002c3.232,0,7.931-1.395,12.264-3.64
									c5.576-2.891,8.689-6.723,9.222-9.059c0.182-0.798,0.091-1.446-0.27-1.926C26.713,8.6,25.212,8.046,23.159,8.046z"/>
							</g>
							<g>
								<path fill="#FFFFFF" d="M14.178,17.177c-0.314-0.336,0.254-1.214,1.395-1.82c1.141-0.604,2.344-0.822,2.678-0.5
									c0.4,0.384-0.363,1.398-1.502,2.004C15.609,17.467,14.557,17.583,14.178,17.177z"/>
								<polygon fill="#FFFFFF" points="11.282,19.438 14.347,16.236 24.561,10.501 16.643,16.828 								"/>
								<polygon fill="#FFFFFF" points="20.849,13.248 16.501,14.927 7.363,21.939 16.484,17.044 								"/>
								<polygon fill="#FFFFFF" points="11.159,15.737 15.318,15.35 25.638,17.249 16.289,16.99 								"/>
								<polygon fill="#FFFFFF" points="21.412,16.987 17.565,15.688 6.983,15.201 16.039,17.042 								"/>
								<polygon fill="#FFFFFF" points="14.943,13.021 16.343,15.61 17.57,22.698 15.309,16.619 								"/>
								<polygon fill="#FFFFFF" points="16.661,19.915 16.67,17.135 14.264,10.208 15.202,16.468 								"/>
								<polygon fill="#FFFFFF" points="19.712,15.507 16.904,16.81 9,18.07 15.682,15.92 								"/>
								<polygon fill="#FFFFFF" points="12.068,17.197 15.207,17.137 22.833,14.835 15.841,15.82 								"/>
							</g>
						</g>
						<g>
							<path fill="#FFFFFF" d="M31.739,8.526c-1.363,0-2.437-0.528-2.946-1.45c-0.46-0.83-0.411-1.869,0.14-2.925
								c0.532-1.021,1.476-1.942,2.655-2.596c1.036-0.574,2.18-0.89,3.221-0.89c1.362,0,2.436,0.528,2.945,1.448
								c0.928,1.678-0.327,4.156-2.797,5.524C33.922,8.21,32.779,8.526,31.739,8.526z M34.809,1.187
								c-0.954,0-2.008,0.293-2.967,0.824c-1.093,0.604-1.961,1.45-2.446,2.381c-0.467,0.896-0.519,1.759-0.146,2.432
								c0.415,0.75,1.322,1.18,2.49,1.18c0.952,0,2.005-0.292,2.964-0.823c2.22-1.229,3.383-3.389,2.595-4.815
								C36.883,1.617,35.976,1.187,34.809,1.187z"/>
							<path fill="#FFFFFF" d="M32.153,7.536c-1.022,0-1.829-0.398-2.215-1.093c-0.695-1.259,0.234-3.112,2.07-4.129
								c0.766-0.424,1.612-0.658,2.384-0.658c1.022,0,1.829,0.399,2.214,1.095c0.258,0.465,0.306,1.023,0.137,1.612
								c-0.275,0.963-1.1,1.903-2.205,2.516C33.771,7.303,32.925,7.536,32.153,7.536z M34.392,2.178
								c-0.685,0-1.441,0.21-2.131,0.592c-1.585,0.879-2.423,2.413-1.866,3.421c0.291,0.523,0.932,0.824,1.759,0.824
								c0.685,0,1.441-0.21,2.131-0.592c0.987-0.547,1.718-1.371,1.956-2.203c0.131-0.454,0.099-0.874-0.092-1.216
								C35.858,2.479,35.219,2.178,34.392,2.178z"/>
						</g>
						
							<ellipse transform="matrix(0.5588 0.8293 -0.8293 0.5588 18.7065 -21.808)" fill="#FFFFFF" cx="29.849" cy="6.677" rx="1.277" ry="1.896"/>
					</g>
					<path fill="#FFFFFF" d="M27.932,9.253l-1.063-1.541l1.838-1.271l1.067,1.54L27.932,9.253z M27.594,7.845l0.471,0.683
						l0.982-0.679l-0.472-0.682L27.594,7.845z"/>
				</g>
				<g>
					<g>
						<g>
							<path fill="#FFFFFF" d="M5.892,43.108V27.463l3.641-0.164v1.684c1.415-1.294,2.154-1.986,4.287-1.986
								c1.626,0,3.162,0.783,3.853,2.287c1.293-1.295,2.8-2.287,5.387-2.287c1.624,0,3.854,0.963,4.017,4.86v11.252h-3.732V32.185
								c-0.165-1.429-0.679-2.118-2.03-2.18c-0.963,0-2.257,0.872-2.964,1.852v11.252h-3.733V32.185
								c-0.165-1.429-0.676-2.118-2.029-2.18c-0.963,0-2.182,0.872-2.89,1.852v11.252H5.892z"/>
							<path fill="#007697" d="M27.968,44h-5.515V32.237c-0.144-1.172-0.473-1.31-1.179-1.342c-0.471,0.001-1.396,0.511-2.033,1.267
								V44h-5.516V32.237c-0.144-1.172-0.473-1.31-1.178-1.342c-0.503,0.001-1.369,0.562-1.958,1.267V44H5V26.609l5.424-0.244v0.699
								c0.869-0.605,1.825-0.959,3.396-0.959c1.642,0,3.101,0.669,4.034,1.801c1.177-0.976,2.755-1.801,5.206-1.801
								c2.257,0,4.731,1.5,4.908,5.713L27.968,44z"/>
						</g>
						<g>
							<path fill="#FFFFFF" d="M37.592,42.943l-0.241-1.351c-1.505,1.022-2.92,1.651-4.876,1.651c-2.827,0-4.242-2.016-4.242-4.151
								c0-3.062,3.328-5.468,8.969-6.139v-1.323c0-1.204-0.965-1.865-2.285-1.865c-1.746,0-2.711,0.933-3.432,1.926l-2.408-1.836
								c0.963-1.656,3.549-2.92,5.84-2.859c4.211,0.09,6.017,1.624,6.181,6.485v7.372c-0.164,0.615-0.103,1.4,0.138,2.09H37.592z
								 M37.366,35.617c-2.499,0.481-5.403,0.828-5.403,3.025c0,1.174,0.755,1.835,1.807,1.835c1.174,0,2.646-0.993,3.432-1.653
								L37.366,35.617z"/>
							<path fill="#007697" d="M32.475,44.137c-3.527,0-5.134-2.615-5.134-5.044c0-3.456,3.414-6.068,8.97-6.917v-0.545
								c0-0.848-0.874-0.975-1.395-0.975c-1.387,0-2.122,0.75-2.709,1.559l-0.537,0.739l-3.76-2.866l0.396-0.681
								c1.095-1.884,3.869-3.305,6.453-3.305l0.182,0.003c4.832,0.102,6.876,2.23,7.049,7.346v7.52l-0.029,0.113
								c-0.115,0.429-0.07,1.029,0.117,1.566l0.412,1.186h-5.645l-0.141-0.793C35.57,43.666,34.234,44.137,32.475,44.137z
								 M36.418,36.703c-2.17,0.42-3.562,0.833-3.562,1.939c0,0.626,0.308,0.943,0.914,0.943c0.7,0,1.738-0.574,2.562-1.207
								L36.418,36.703z"/>
						</g>
						<g>
							<path fill="#FFFFFF" d="M42.818,27.463l3.42-0.164v1.443c1.082-1.054,2.314-1.746,4-1.746c4.154,0,6.426,3.835,6.426,8.71
								c0,3.853-2.393,7.538-6.426,7.538c-1.264,0-3.039-0.753-3.792-1.743h-0.058v7.161l-3.57,0.166V27.463z M46.553,39.076
								c0.586,0.527,1.52,1.16,2.725,1.16c2.225,0,3.653-1.641,3.653-4.951s-1.429-5.28-3.653-5.28c-1.597,0-2.109,0.782-2.725,1.55
								V39.076z"/>
							<path fill="#007697" d="M41.928,49.762V26.612l5.201-0.249v0.566c0.957-0.559,1.973-0.824,3.109-0.824
								c4.377,0,7.317,3.857,7.317,9.601c0,4.087-2.564,8.431-7.317,8.431c-0.857,0-1.986-0.302-2.959-0.834v6.211L41.928,49.762z
								 M47.445,38.659c0.595,0.455,1.21,0.686,1.832,0.686c2.282,0,2.762-2.208,2.762-4.06c0-2.748-1.033-4.389-2.762-4.389
								c-1.012,0-1.35,0.363-1.832,0.969V38.659z"/>
						</g>
					</g>
				</g>
				<g>
					<path fill="#FFFFFF" d="M5.892,43.108V27.463l3.641-0.164v1.684c1.415-1.294,2.154-1.986,4.287-1.986
						c1.626,0,3.162,0.783,3.853,2.287c1.293-1.295,2.8-2.287,5.387-2.287c1.624,0,3.854,0.963,4.017,4.86v11.252h-3.732V32.185
						c-0.165-1.429-0.679-2.118-2.03-2.18c-0.963,0-2.257,0.872-2.964,1.852v11.252h-3.733V32.185
						c-0.165-1.429-0.676-2.118-2.029-2.18c-0.963,0-2.182,0.872-2.89,1.852v11.252H5.892z"/>
					<path fill="#FFFFFF" d="M37.592,42.943l-0.241-1.351c-1.505,1.022-2.92,1.651-4.876,1.651c-2.827,0-4.242-2.016-4.242-4.151
						c0-3.062,3.328-5.468,8.969-6.139v-1.323c0-1.204-0.965-1.865-2.285-1.865c-1.746,0-2.711,0.933-3.432,1.926l-2.408-1.836
						c0.963-1.656,3.549-2.92,5.84-2.859c4.211,0.09,6.017,1.624,6.181,6.485v7.372c-0.164,0.615-0.103,1.4,0.138,2.09H37.592z
						 M37.366,35.617c-2.499,0.481-5.403,0.828-5.403,3.025c0,1.174,0.755,1.835,1.807,1.835c1.174,0,2.646-0.993,3.432-1.653
						L37.366,35.617z"/>
					<path fill="#FFFFFF" d="M42.818,27.463h3.584v1.443c1.082-1.053,2.314-1.746,4-1.746c4.153,0,6.262,3.671,6.262,8.546
						c0,3.853-2.228,7.704-6.262,7.704c-1.262,0-3.038-0.754-3.791-1.745h-0.059v7.163h-3.734V27.463z M46.553,39.076
						c0.75,0.692,1.684,1.325,2.889,1.325c2.226,0,3.489-1.806,3.489-5.116s-1.264-5.115-3.489-5.115
						c-1.596,0-2.107,0.782-2.889,1.385V39.076z"/>
				</g>
			</g>
		</g>
		<g>
			<path fill="#FFFFFF" d="M10.978,47.701c0.054,0.104,0.126,0.189,0.216,0.254c0.089,0.064,0.194,0.113,0.315,0.145
				c0.122,0.03,0.247,0.047,0.376,0.047c0.088,0,0.181-0.008,0.281-0.021c0.101-0.016,0.195-0.043,0.282-0.086
				c0.088-0.041,0.16-0.099,0.22-0.172c0.058-0.072,0.087-0.166,0.087-0.279c0-0.12-0.039-0.219-0.116-0.293
				c-0.078-0.076-0.178-0.139-0.304-0.188c-0.125-0.051-0.267-0.095-0.425-0.133c-0.159-0.037-0.32-0.078-0.483-0.125
				c-0.167-0.041-0.329-0.092-0.488-0.153c-0.159-0.06-0.301-0.138-0.426-0.234c-0.125-0.096-0.226-0.216-0.303-0.359
				c-0.076-0.145-0.115-0.319-0.115-0.522c0-0.23,0.049-0.43,0.146-0.599s0.226-0.31,0.385-0.421
				c0.159-0.113,0.338-0.197,0.538-0.252c0.201-0.055,0.401-0.081,0.602-0.081c0.233,0,0.458,0.026,0.673,0.078
				c0.215,0.052,0.405,0.137,0.573,0.255c0.167,0.115,0.299,0.266,0.397,0.445c0.098,0.183,0.147,0.402,0.147,0.661h-0.951
				c-0.009-0.133-0.037-0.245-0.085-0.332c-0.048-0.087-0.112-0.157-0.191-0.206c-0.079-0.051-0.17-0.086-0.272-0.107
				c-0.102-0.02-0.213-0.031-0.334-0.031c-0.08,0-0.159,0.01-0.237,0.025c-0.08,0.018-0.152,0.047-0.216,0.088
				c-0.065,0.043-0.118,0.094-0.16,0.156s-0.063,0.143-0.063,0.238c0,0.088,0.017,0.158,0.051,0.213
				c0.033,0.053,0.098,0.104,0.196,0.15c0.099,0.046,0.233,0.092,0.407,0.137c0.173,0.047,0.4,0.105,0.679,0.176
				c0.084,0.018,0.2,0.047,0.348,0.092c0.147,0.043,0.294,0.113,0.44,0.209c0.147,0.096,0.273,0.225,0.379,0.385
				c0.106,0.161,0.16,0.367,0.16,0.617c0,0.204-0.04,0.395-0.119,0.569c-0.08,0.175-0.197,0.326-0.354,0.453
				c-0.157,0.128-0.351,0.228-0.582,0.298c-0.232,0.07-0.5,0.106-0.804,0.106c-0.247,0-0.485-0.03-0.717-0.091
				c-0.232-0.061-0.437-0.155-0.614-0.285c-0.178-0.129-0.318-0.295-0.422-0.494c-0.104-0.201-0.155-0.438-0.151-0.713h0.951
				C10.896,47.47,10.923,47.598,10.978,47.701z"/>
			<path fill="#FFFFFF" d="M14.219,45.066v-0.732h0.889v0.732H14.219z M15.108,45.566v3.236h-0.889v-3.236H15.108z"/>
			<path fill="#FFFFFF" d="M16.654,45.566v0.451h0.019c0.113-0.188,0.259-0.324,0.438-0.41c0.179-0.086,0.362-0.129,0.551-0.129
				c0.238,0,0.433,0.033,0.585,0.099c0.152,0.064,0.272,0.153,0.359,0.269c0.087,0.114,0.149,0.254,0.185,0.42
				c0.036,0.164,0.054,0.346,0.054,0.547v1.99h-0.89v-1.828c0-0.266-0.042-0.466-0.125-0.598c-0.083-0.131-0.231-0.197-0.444-0.197
				c-0.242,0-0.417,0.072-0.526,0.217c-0.108,0.143-0.162,0.381-0.162,0.711v1.695H15.81v-3.236H16.654z"/>
			<path fill="#FFFFFF" d="M22.578,49.041c-0.035,0.166-0.112,0.322-0.229,0.466c-0.116,0.144-0.285,0.267-0.506,0.366
				c-0.222,0.1-0.518,0.15-0.89,0.15c-0.159,0-0.32-0.02-0.485-0.06s-0.315-0.101-0.451-0.185c-0.136-0.083-0.249-0.19-0.337-0.322
				c-0.091-0.131-0.142-0.289-0.155-0.473h0.883c0.042,0.166,0.123,0.283,0.245,0.348c0.121,0.064,0.26,0.098,0.419,0.098
				c0.25,0,0.433-0.076,0.547-0.227c0.114-0.15,0.169-0.34,0.167-0.569v-0.425h-0.014c-0.096,0.17-0.232,0.297-0.41,0.378
				c-0.178,0.081-0.364,0.122-0.56,0.122c-0.243,0-0.451-0.043-0.626-0.129c-0.175-0.084-0.319-0.201-0.432-0.35
				c-0.113-0.148-0.195-0.321-0.248-0.52c-0.052-0.198-0.078-0.408-0.078-0.629c0-0.209,0.03-0.41,0.09-0.604
				c0.06-0.195,0.149-0.366,0.266-0.514c0.116-0.148,0.262-0.267,0.435-0.354c0.173-0.088,0.372-0.133,0.599-0.133
				c0.212,0,0.399,0.041,0.56,0.12c0.159,0.079,0.294,0.212,0.403,0.399h0.014v-0.432h0.845v3.029
				C22.632,48.727,22.613,48.874,22.578,49.041z M21.36,47.965c0.097-0.051,0.177-0.117,0.239-0.201
				c0.062-0.083,0.109-0.179,0.141-0.285c0.031-0.105,0.047-0.217,0.047-0.334c0-0.133-0.014-0.26-0.039-0.379
				c-0.024-0.119-0.066-0.225-0.125-0.315c-0.059-0.093-0.137-0.165-0.232-0.22s-0.217-0.081-0.362-0.081
				c-0.125,0-0.233,0.024-0.323,0.074c-0.089,0.051-0.164,0.118-0.225,0.204s-0.104,0.184-0.131,0.294
				c-0.027,0.11-0.041,0.227-0.041,0.347c0,0.118,0.012,0.233,0.034,0.348c0.023,0.115,0.063,0.219,0.119,0.311
				c0.057,0.092,0.13,0.166,0.223,0.225c0.091,0.059,0.207,0.088,0.344,0.088C21.154,48.039,21.264,48.015,21.36,47.965z"/>
			<path fill="#FFFFFF" d="M23.464,46.043c0.092-0.138,0.208-0.248,0.35-0.332s0.302-0.143,0.479-0.178s0.355-0.055,0.534-0.055
				c0.164,0,0.329,0.013,0.495,0.035c0.167,0.023,0.32,0.068,0.458,0.135c0.137,0.066,0.25,0.158,0.337,0.278
				c0.087,0.119,0.132,0.276,0.132,0.472v1.686c0,0.145,0.008,0.285,0.025,0.418c0.017,0.134,0.045,0.234,0.087,0.301H25.46
				c-0.018-0.05-0.03-0.102-0.041-0.153c-0.011-0.052-0.019-0.104-0.022-0.159c-0.141,0.146-0.308,0.248-0.5,0.307
				c-0.192,0.059-0.389,0.088-0.588,0.088c-0.155,0-0.299-0.02-0.432-0.057c-0.134-0.038-0.25-0.096-0.351-0.176
				c-0.1-0.078-0.178-0.18-0.234-0.301c-0.057-0.12-0.085-0.264-0.085-0.432c0-0.184,0.032-0.335,0.097-0.453
				c0.064-0.119,0.148-0.214,0.251-0.285c0.102-0.07,0.218-0.124,0.351-0.159c0.131-0.035,0.264-0.063,0.396-0.085
				c0.134-0.021,0.265-0.037,0.395-0.051c0.129-0.012,0.244-0.031,0.344-0.056c0.1-0.024,0.179-0.062,0.238-0.109
				c0.058-0.048,0.085-0.118,0.081-0.21c0-0.096-0.016-0.172-0.046-0.229c-0.032-0.057-0.073-0.1-0.125-0.131
				c-0.053-0.031-0.113-0.053-0.183-0.062c-0.068-0.01-0.142-0.016-0.222-0.016c-0.175,0-0.312,0.037-0.413,0.113
				c-0.101,0.074-0.159,0.199-0.176,0.375h-0.889C23.32,46.354,23.373,46.18,23.464,46.043z M25.219,47.298
				c-0.056,0.019-0.116,0.034-0.181,0.046c-0.065,0.013-0.133,0.023-0.204,0.031c-0.071,0.009-0.142,0.02-0.212,0.032
				c-0.068,0.012-0.134,0.029-0.197,0.05c-0.066,0.021-0.122,0.049-0.169,0.084c-0.047,0.037-0.086,0.081-0.116,0.135
				c-0.029,0.055-0.044,0.123-0.044,0.207c0,0.079,0.015,0.146,0.044,0.201c0.03,0.053,0.07,0.096,0.119,0.127
				c0.05,0.031,0.108,0.053,0.176,0.066c0.065,0.012,0.135,0.019,0.206,0.019c0.175,0,0.311-0.029,0.407-0.087
				c0.095-0.059,0.167-0.129,0.212-0.21c0.046-0.082,0.075-0.164,0.084-0.247c0.011-0.084,0.016-0.15,0.016-0.201v-0.332
				C25.323,47.253,25.276,47.279,25.219,47.298z"/>
			<path fill="#FFFFFF" d="M27.783,45.566v0.414h0.012c0.109-0.176,0.246-0.303,0.414-0.382c0.167-0.079,0.351-0.12,0.55-0.12
				c0.254,0,0.474,0.049,0.657,0.145s0.335,0.223,0.457,0.383c0.121,0.158,0.211,0.343,0.27,0.553
				c0.059,0.211,0.088,0.432,0.088,0.66c0,0.218-0.029,0.426-0.088,0.627c-0.059,0.2-0.147,0.377-0.267,0.531
				c-0.119,0.154-0.267,0.277-0.443,0.369c-0.178,0.093-0.386,0.139-0.624,0.139c-0.2,0-0.384-0.041-0.554-0.123
				c-0.168-0.081-0.307-0.201-0.417-0.359h-0.012v1.533h-0.888v-4.369H27.783z M28.937,48.133c0.099-0.058,0.178-0.134,0.238-0.228
				c0.06-0.095,0.104-0.204,0.128-0.329s0.038-0.252,0.038-0.382c0-0.129-0.014-0.257-0.041-0.382s-0.072-0.236-0.134-0.334
				c-0.063-0.099-0.143-0.178-0.241-0.238c-0.099-0.061-0.219-0.091-0.36-0.091c-0.147,0-0.269,0.03-0.367,0.091
				c-0.099,0.061-0.177,0.139-0.238,0.234c-0.06,0.096-0.104,0.207-0.128,0.332c-0.025,0.125-0.038,0.254-0.038,0.388
				c0,0.13,0.014,0.257,0.041,0.382c0.028,0.125,0.071,0.234,0.132,0.329c0.06,0.094,0.142,0.17,0.241,0.228
				c0.101,0.059,0.221,0.088,0.362,0.088C28.717,48.221,28.839,48.191,28.937,48.133z"/>
			<path fill="#FFFFFF" d="M30.781,46.484c0.08-0.211,0.191-0.391,0.338-0.538c0.145-0.149,0.32-0.265,0.525-0.345
				c0.205-0.082,0.435-0.123,0.689-0.123c0.254,0,0.484,0.041,0.691,0.123c0.205,0.08,0.383,0.195,0.529,0.345
				c0.145,0.147,0.258,0.327,0.337,0.538s0.118,0.445,0.118,0.704s-0.039,0.492-0.118,0.7c-0.079,0.209-0.192,0.387-0.337,0.535
				c-0.146,0.148-0.324,0.263-0.529,0.342c-0.207,0.079-0.438,0.119-0.691,0.119c-0.255,0-0.484-0.04-0.689-0.119
				s-0.381-0.193-0.525-0.342c-0.146-0.148-0.258-0.326-0.338-0.535c-0.08-0.208-0.121-0.441-0.121-0.7S30.701,46.695,30.781,46.484
				z M31.588,47.566c0.025,0.123,0.068,0.234,0.129,0.332c0.061,0.099,0.141,0.177,0.24,0.234c0.1,0.059,0.225,0.088,0.377,0.088
				c0.148,0,0.275-0.029,0.378-0.088c0.103-0.058,0.184-0.136,0.243-0.234c0.061-0.098,0.104-0.209,0.129-0.332
				s0.037-0.249,0.037-0.378c0-0.13-0.012-0.257-0.037-0.382s-0.068-0.236-0.129-0.332c-0.06-0.096-0.141-0.174-0.243-0.234
				s-0.229-0.091-0.378-0.091c-0.152,0-0.277,0.03-0.377,0.091s-0.18,0.139-0.24,0.234s-0.104,0.207-0.129,0.332
				c-0.024,0.125-0.037,0.252-0.037,0.382C31.551,47.317,31.563,47.443,31.588,47.566z"/>
			<path fill="#FFFFFF" d="M35.432,45.566v0.602h0.012c0.041-0.101,0.099-0.193,0.169-0.279c0.071-0.085,0.153-0.158,0.245-0.219
				s0.189-0.107,0.293-0.141c0.104-0.033,0.214-0.051,0.326-0.051c0.059,0,0.123,0.012,0.193,0.032v0.827
				c-0.041-0.01-0.092-0.017-0.15-0.023c-0.058-0.006-0.113-0.009-0.168-0.009c-0.162,0-0.301,0.027-0.412,0.081
				c-0.114,0.055-0.205,0.129-0.273,0.223s-0.118,0.203-0.146,0.328c-0.029,0.125-0.045,0.261-0.045,0.406v1.459h-0.889v-3.236
				H35.432z"/>
			<path fill="#FFFFFF" d="M37.86,48.027c0.133,0.129,0.325,0.193,0.575,0.193c0.18,0,0.334-0.045,0.464-0.135
				c0.129-0.089,0.208-0.184,0.237-0.284h0.782c-0.125,0.388-0.317,0.665-0.575,0.832c-0.259,0.167-0.572,0.251-0.939,0.251
				c-0.254,0-0.484-0.041-0.688-0.123c-0.204-0.081-0.378-0.197-0.519-0.347c-0.144-0.151-0.252-0.329-0.33-0.538
				c-0.076-0.209-0.115-0.439-0.115-0.688c0-0.242,0.039-0.468,0.119-0.677c0.079-0.208,0.191-0.389,0.338-0.541
				c0.146-0.152,0.32-0.272,0.522-0.359c0.202-0.088,0.427-0.133,0.673-0.133c0.275,0,0.516,0.055,0.721,0.16
				s0.372,0.25,0.503,0.429c0.132,0.18,0.228,0.385,0.285,0.614c0.058,0.229,0.079,0.469,0.063,0.719h-2.336
				C37.653,47.689,37.727,47.897,37.86,48.027z M38.863,46.324c-0.105-0.116-0.267-0.175-0.483-0.175
				c-0.142,0-0.261,0.023-0.354,0.071c-0.095,0.049-0.17,0.107-0.226,0.178c-0.057,0.072-0.096,0.146-0.119,0.227
				c-0.023,0.078-0.036,0.15-0.041,0.213h1.445C39.045,46.611,38.971,46.441,38.863,46.324z"/>
		</g>
	</g>
</g>
</svg>
