<?xml version="1.0" encoding="utf-8"?>
<!-- Generator: Adobe Illustrator 16.0.0, SVG Export Plug-In . SVG Version: 6.00 Build 0)  -->
<!DOCTYPE svg PUBLIC "-//W3C//DTD SVG 1.0//EN" "http://www.w3.org/TR/2001/REC-SVG-20010904/DTD/svg10.dtd">
<svg version="1.0" id="Layer_1" xmlns="http://www.w3.org/2000/svg" xmlns:xlink="http://www.w3.org/1999/xlink" x="0px" y="0px"
	 width="20px" height="20px" viewBox="0 0 20 20" enable-background="new 0 0 20 20" xml:space="preserve">
<g>
	<path fill="#3D3B3C" d="M10,2c4.411,0,8,3.589,8,8s-3.589,8-8,8s-8-3.589-8-8S5.589,2,10,2 M10,1c-4.971,0-9,4.029-9,9s4.029,9,9,9
		s9-4.029,9-9S14.971,1,10,1L10,1z"/>
	<path fill="#3D3B3C" d="M13.999,14c-0.208,0-0.419-0.065-0.599-0.2l-4-3C9.148,10.611,9,10.314,9,10V6c0-0.553,0.448-1,1-1
		s1,0.447,1,1v3.5l3.6,2.7c0.442,0.331,0.531,0.958,0.2,1.399C14.604,13.862,14.303,14,13.999,14z"/>
</g>
</svg>
