<?xml version="1.0" encoding="utf-8"?>
<!-- Generator: Adobe Illustrator 16.0.0, SVG Export Plug-In . SVG Version: 6.00 Build 0)  -->
<!DOCTYPE svg PUBLIC "-//W3C//DTD SVG 1.0//EN" "http://www.w3.org/TR/2001/REC-SVG-20010904/DTD/svg10.dtd">
<svg version="1.0" id="Layer_1" xmlns="http://www.w3.org/2000/svg" xmlns:xlink="http://www.w3.org/1999/xlink" x="0px" y="0px"
	 width="28px" height="28px" viewBox="0 0 28 28" enable-background="new 0 0 28 28" xml:space="preserve">
<g>
	<g>
		<g>
			<path fill="#3C7FBB" d="M20,5H8C7.447,5,7,5.447,7,6v16c0,0.553,0.447,1,1,1h12c0.553,0,1-0.447,1-1V6C21,5.447,20.553,5,20,5z
				 M19,21H9V7h10V21z M17,9h-6v2h6V9z M17,12h-6v1h6V12z M17,16h-6v1h6V16z M16,14h-5v1h5V14z M15,18h-4v1h4V18z"/>
		</g>
	</g>
</g>
</svg>
