<?xml version="1.0" encoding="utf-8"?>
<!-- Generator: Adobe Illustrator 16.0.0, SVG Export Plug-In . SVG Version: 6.00 Build 0)  -->
<!DOCTYPE svg PUBLIC "-//W3C//DTD SVG 1.0//EN" "http://www.w3.org/TR/2001/REC-SVG-20010904/DTD/svg10.dtd">
<svg version="1.0" id="Layer_1" xmlns="http://www.w3.org/2000/svg" xmlns:xlink="http://www.w3.org/1999/xlink" x="0px" y="0px"
	 width="26px" height="26px" viewBox="0 0 26 26" enable-background="new 0 0 26 26" xml:space="preserve">
<g>
	<path d="M1584,782c6.064,0,11,4.936,11,11s-4.936,11-11,11s-11-4.936-11-11S1577.936,782,1584,782 M1584,781
		c-6.627,0-12,5.373-12,12s5.373,12,12,12s12-5.373,12-12S1590.627,781,1584,781L1584,781z"/>
</g>
<circle cx="1584" cy="793" r="1"/>
<circle cx="1580" cy="793" r="1"/>
<circle cx="1588" cy="793" r="1"/>
<circle fill="#3D3B3C" cx="11" cy="13" r="1"/>
<circle fill="#3D3B3C" cx="11" cy="9" r="1"/>
<circle fill="#3D3B3C" cx="11" cy="5" r="1"/>
<circle fill="#3D3B3C" cx="11" cy="21" r="1"/>
<circle fill="#3D3B3C" cx="11" cy="17" r="1"/>
<circle fill="#3D3B3C" cx="15" cy="13" r="1"/>
<circle fill="#3D3B3C" cx="15" cy="9" r="1"/>
<circle fill="#3D3B3C" cx="15" cy="5" r="1"/>
<circle fill="#3D3B3C" cx="15" cy="21" r="1"/>
<circle fill="#3D3B3C" cx="15" cy="17" r="1"/>
</svg>
