<?xml version="1.0" encoding="utf-8"?>
<!-- Generator: Adobe Illustrator 16.0.0, SVG Export Plug-In . SVG Version: 6.00 Build 0)  -->
<!DOCTYPE svg PUBLIC "-//W3C//DTD SVG 1.0//EN" "http://www.w3.org/TR/2001/REC-SVG-20010904/DTD/svg10.dtd">
<svg version="1.0" id="Layer_1" xmlns="http://www.w3.org/2000/svg" xmlns:xlink="http://www.w3.org/1999/xlink" x="0px" y="0px"
	 width="18px" height="34px" viewBox="0 0 18 34" enable-background="new 0 0 18 34" xml:space="preserve">
<g>
	<path fill="#55555D" d="M7,22c-0.553,0-1,0.447-1,1s0.447,1,1,1s1-0.447,1-1S7.553,22,7,22z M7,18c-0.553,0-1,0.447-1,1
		s0.447,1,1,1s1-0.447,1-1S7.553,18,7,18z M7,14c-0.553,0-1,0.447-1,1s0.447,1,1,1s1-0.447,1-1S7.553,14,7,14z M7,30
		c-0.553,0-1,0.447-1,1s0.447,1,1,1s1-0.447,1-1S7.553,30,7,30z M7,26c-0.553,0-1,0.447-1,1s0.447,1,1,1s1-0.447,1-1S7.553,26,7,26z
		 M11,22c-0.553,0-1,0.447-1,1s0.447,1,1,1s1-0.447,1-1S11.553,22,11,22z M11,18c-0.553,0-1,0.447-1,1s0.447,1,1,1s1-0.447,1-1
		S11.553,18,11,18z M11,14c-0.553,0-1,0.447-1,1s0.447,1,1,1s1-0.447,1-1S11.553,14,11,14z M11,30c-0.553,0-1,0.447-1,1s0.447,1,1,1
		s1-0.447,1-1S11.553,30,11,30z M11,26c-0.553,0-1,0.447-1,1s0.447,1,1,1s1-0.447,1-1S11.553,26,11,26z M7,10c-0.553,0-1,0.447-1,1
		s0.447,1,1,1s1-0.447,1-1S7.553,10,7,10z M11,10c-0.553,0-1,0.447-1,1s0.447,1,1,1s1-0.447,1-1S11.553,10,11,10z M7,6
		C6.447,6,6,6.447,6,7s0.447,1,1,1s1-0.447,1-1S7.553,6,7,6z M11,6c-0.553,0-1,0.447-1,1s0.447,1,1,1s1-0.447,1-1S11.553,6,11,6z
		 M7,2C6.447,2,6,2.447,6,3s0.447,1,1,1s1-0.447,1-1S7.553,2,7,2z M11,4c0.553,0,1-0.447,1-1s-0.447-1-1-1s-1,0.447-1,1
		S10.447,4,11,4z"/>
</g>
</svg>
