<?xml version="1.0" encoding="utf-8"?>
<!-- Generator: Adobe Illustrator 16.0.0, SVG Export Plug-In . SVG Version: 6.00 Build 0)  -->
<!DOCTYPE svg PUBLIC "-//W3C//DTD SVG 1.0//EN" "http://www.w3.org/TR/2001/REC-SVG-20010904/DTD/svg10.dtd">
<svg version="1.0" id="Layer_1" xmlns="http://www.w3.org/2000/svg" xmlns:xlink="http://www.w3.org/1999/xlink" x="0px" y="0px"
	 width="10px" height="10px" viewBox="0 0 10 10" enable-background="new 0 0 10 10" xml:space="preserve">
<path opacity="0.35" fill-rule="evenodd" clip-rule="evenodd" fill="#27272E" d="M3,1h4c1.104,0,2,0.896,2,2v4c0,1.104-0.896,2-2,2
	H3C1.896,9,1,8.104,1,7V3C1,1.896,1.896,1,3,1z"/>
<path fill="#FFFFFF" d="M6.5,4H5H3.5C3.311,4,3.138,4.107,3.053,4.276S2.987,4.648,3.1,4.8l1.5,2C4.695,6.926,4.843,7,5,7
	s0.306-0.074,0.4-0.2l1.5-2c0.113-0.151,0.131-0.354,0.047-0.523C6.862,4.107,6.689,4,6.5,4L6.5,4z"/>
</svg>
