<?xml version="1.0" encoding="utf-8"?>
<!-- Generator: Adobe Illustrator 16.0.0, SVG Export Plug-In . SVG Version: 6.00 Build 0)  -->
<!DOCTYPE svg PUBLIC "-//W3C//DTD SVG 1.0//EN" "http://www.w3.org/TR/2001/REC-SVG-20010904/DTD/svg10.dtd">
<svg version="1.0" id="Layer_1" xmlns="http://www.w3.org/2000/svg" xmlns:xlink="http://www.w3.org/1999/xlink" x="0px" y="0px"
	 width="20px" height="20px" viewBox="0 0 20 20" enable-background="new 0 0 20 20" xml:space="preserve">
<g>
	<path fill="#3D3B3C" d="M1,8.999v2h2v-2H1z M1,12.999v2h2v-2H1z M1,16.999v2h2v-2H1z"/>
	<path fill="#3D3B3C" d="M5,8.999v2h14v-2H5z M5,12.999v2h14v-2H5z M5,16.999v2h14v-2H5z"/>
	<path fill="#3D3B3C" d="M4.975,1.001l1.869,4.998H5.703L5.325,4.886H3.456L3.064,5.999H1.958l1.89-4.998H4.975z M5.038,4.067
		l-0.63-1.834H4.394L3.743,4.067H5.038z"/>
	<path fill="#3D3B3C" d="M12,2.999v1H8v-1H12z"/>
	<path fill="#3D3B3C" d="M16.681,1.925H14.21V1.001h3.935v0.868l-2.682,3.206h2.751v0.924H14V5.131L16.681,1.925z"/>
</g>
</svg>
