<?xml version="1.0" encoding="utf-8"?>
<!-- Generator: Adobe Illustrator 16.0.0, SVG Export Plug-In . SVG Version: 6.00 Build 0)  -->
<!DOCTYPE svg PUBLIC "-//W3C//DTD SVG 1.0//EN" "http://www.w3.org/TR/2001/REC-SVG-20010904/DTD/svg10.dtd">
<svg version="1.0" id="Layer_1" xmlns="http://www.w3.org/2000/svg" xmlns:xlink="http://www.w3.org/1999/xlink" x="0px" y="0px"
	 width="110px" height="51px" viewBox="0 0 110 51" enable-background="new 0 0 110 51" xml:space="preserve">
<g>
	<g>
		<g>
			<polygon fill="#A6CE39" points="55.339,25.04 63.592,25.04 64.166,26.633 58.529,26.633 63.432,40.131 97.382,40.131 
				79.44,26.633 73.802,26.633 73.206,25.04 80.555,25.04 108.6,43.262 60.729,43.262 			"/>
		</g>
		<g>
			<path fill="#FFFFFF" d="M11.733,1.044c2.655,0,6.307,0.554,7.628,0.881v3.782c-2.648-0.965-5.235-1.555-8.273-1.555
				c-3.526,0-6.043,1.92-6.043,4.812c0,3.086,2.745,4.332,5.111,5.604c4.936,2.653,11.408,4.854,11.408,11.827
				c0,7.096-6.471,9.881-12.384,9.881c-2.584,0-5.654-0.441-8.229-1.047v-3.814c2.059,0.639,5.694,1.621,8.93,1.621
				c4.311,0,6.788-2.357,6.788-5.59c0-8.263-16.069-7.05-16.069-17.721C0.6,4.448,4.898,1.044,11.733,1.044z"/>
			<path fill="#FFFFFF" d="M45.602,36L58.43,1.32h3.205l11.497,28.473c1.388,3.439,1.955,4.918,4.816,4.918L78.696,36h-8.724
				L59.239,8.417L49.024,36H45.602z"/>
			<path fill="#FFFFFF" d="M43.44,36H24V1.32h4.794v27.284c0,1.967,0.235,4.187,3.296,4.187h12.537L43.44,36z"/>
		</g>
	</g>
</g>
</svg>
