<?xml version="1.0" encoding="utf-8"?>
<!-- Generator: Adobe Illustrator 16.0.0, SVG Export Plug-In . SVG Version: 6.00 Build 0)  -->
<!DOCTYPE svg PUBLIC "-//W3C//DTD SVG 1.0//EN" "http://www.w3.org/TR/2001/REC-SVG-20010904/DTD/svg10.dtd">
<svg version="1.0" id="Layer_1" xmlns="http://www.w3.org/2000/svg" xmlns:xlink="http://www.w3.org/1999/xlink" x="0px" y="0px"
	 width="26px" height="18px" viewBox="-4 0 26 18" enable-background="new -4 0 26 18" xml:space="preserve">
<path fill="#55555D" d="M13.133,8.987c-0.004,0.004-0.01,0.005-0.014,0.009c-0.151-0.432-0.387-0.678-0.412-0.703
	c-0.105-0.104-0.88-0.844-1.877-1.152c0.059-0.093,0.102-0.193,0.182-0.274l5.635-4.999C16.285,1.344,15.684,1,15,1H3
	C1.896,1,1,1.896,1,3v12c0,1.104,0.896,2,2,2h12c1.104,0,2-0.896,2-2V4.63L13.133,8.987z M11,12c-2,2-6,1-6,1c2-1,2-3,3-4s2-1,2-1
	c1,0,2,1,2,1S13,10,11,12z"/>
</svg>
