<?xml version="1.0" encoding="utf-8"?>
<!-- Generator: Adobe Illustrator 16.0.0, SVG Export Plug-In . SVG Version: 6.00 Build 0)  -->
<!DOCTYPE svg PUBLIC "-//W3C//DTD SVG 1.0//EN" "http://www.w3.org/TR/2001/REC-SVG-20010904/DTD/svg10.dtd">
<svg version="1.0" id="Layer_1" xmlns="http://www.w3.org/2000/svg" xmlns:xlink="http://www.w3.org/1999/xlink" x="0px" y="0px"
	 width="28px" height="28px" viewBox="0 0 28 28" enable-background="new 0 0 28 28" xml:space="preserve">
<g>
	<g>
		<g>
			<path fill="#6D9FCC" d="M17,10v6c0,0.553-0.447,1-1,1h-6c0,3.867,3.134,7,7,7s7-3.133,7-7C24,13.135,20.866,10,17,10z"/>
		</g>
		<g>
			<path fill="#6D9FCC" d="M17,10V6c0-0.553-0.447-1-1-1H6C5.448,5,5,5.447,5,6v10c0,0.553,0.448,1,1,1h4C10,13.135,13.134,10,17,10
				z"/>
		</g>
	</g>
	<g>
		<g>
			<path fill="#3C7FBB" d="M18,11.083c2.834,0.478,5,2.949,5,5.917c0,3.309-2.691,6-6,6c-2.968,0-5.439-2.166-5.917-5H16
				c1.103,0,2-0.897,2-2V11.083 M17,10v6c0,0.553-0.447,1-1,1h-6c0,3.867,3.134,7,7,7s7-3.133,7-7C24,13.135,20.866,10,17,10L17,10z
				"/>
		</g>
		<g>
			<path fill="#3C7FBB" d="M16,6v3.062C12.387,9.515,9.515,12.387,9.062,16H6V6H16 M16,5H6C5.448,5,5,5.447,5,6v10
				c0,0.553,0.448,1,1,1h4c0-3.865,3.134-7,7-7V6C17,5.447,16.553,5,16,5L16,5z"/>
		</g>
	</g>
</g>
</svg>
