<?xml version="1.0" encoding="utf-8"?>
<!-- Generator: Adobe Illustrator 16.0.0, SVG Export Plug-In . SVG Version: 6.00 Build 0)  -->
<!DOCTYPE svg PUBLIC "-//W3C//DTD SVG 1.0//EN" "http://www.w3.org/TR/2001/REC-SVG-20010904/DTD/svg10.dtd">
<svg version="1.0" id="Layer_1" xmlns="http://www.w3.org/2000/svg" xmlns:xlink="http://www.w3.org/1999/xlink" x="0px" y="0px"
	 width="28px" height="28px" viewBox="0 0 28 28" enable-background="new 0 0 28 28" xml:space="preserve">
<g>
	<path fill="#BBD2E7" d="M22.246,5.05c0,0-0.001-0.001-0.002-0.001l0,0C22.164,5.028,22.086,5,22,5h-3h-0.707H15h-0.707H11h-0.707H7
		H6.293H6C5.448,5,5,5.447,5,6v0.293v1.414v2.586v1.414v2.586v1.414v2.586v1.414V22c0,0.466,0.325,0.84,0.756,0.951c0,0,0,0,0.001,0
		l0,0C5.837,22.972,5.914,23,6,23h3h0.707H13h0.707H17h0.707H21h0.707H22c0.553,0,1-0.447,1-1v-0.293v-1.414v-2.586v-1.414v-2.586
		v-1.414V9.707V8.293V6C23,5.535,22.676,5.161,22.246,5.05z M6,6.707L6.708,6h2.586L6,9.293V6.707z M6,10.707L10.708,6h2.586
		L6,13.293V10.707z M6,14.707L14.708,6h2.585L6,17.293V14.707z M18.707,6h2.586L6,21.293v-2.586L18.707,6z M22,21.293L21.293,22
		h-2.586L22,18.707V21.293z M22,17.293L17.293,22h-2.585L22,14.707V17.293z M22,13.293L13.293,22h-2.586L22,10.707V13.293z
		 M9.293,22H6.708L22,6.707v2.586L9.293,22z"/>
	<path fill="#3C7FBB" d="M20.891,15.195c0.004-0.02,0.006-0.038,0.009-0.058C20.961,14.767,21,14.389,21,14
		c0-0.695-0.105-1.365-0.293-1.999l0,0c0,0,0,0-0.001-0.001c-0.104-0.351-0.239-0.688-0.396-1.013c0-0.001,0-0.003-0.001-0.004l0,0
		c-0.272-0.567-0.615-1.092-1.022-1.562l0,0c-0.001-0.001-0.002-0.001-0.003-0.002c-0.626-0.722-1.397-1.312-2.268-1.729l0,0
		c-0.001-0.001-0.003-0.001-0.004-0.001C16.1,7.252,15.08,7,14,7c-0.387,0-0.765,0.04-1.135,0.101
		c-0.021,0.003-0.041,0.006-0.061,0.009c-2.632,0.454-4.76,2.372-5.51,4.89l0,0c0,0.001,0,0.002-0.001,0.004
		c-0.078,0.261-0.137,0.529-0.184,0.803c-0.003,0.019-0.006,0.038-0.009,0.057C7.04,13.233,7,13.611,7,14
		c0,0.695,0.105,1.366,0.293,2l0,0l0,0.001c0.287,0.964,0.777,1.838,1.419,2.579l0,0c0.001,0.002,0.003,0.003,0.004,0.004
		c0.218,0.251,0.452,0.485,0.703,0.703l0,0l0,0c0.74,0.642,1.614,1.132,2.577,1.419c0.001,0,0.002,0.001,0.003,0.001h0
		C12.635,20.896,13.305,21,14,21c0.387,0,0.764-0.039,1.135-0.1c0.021-0.004,0.042-0.007,0.062-0.01
		c0.273-0.048,0.542-0.106,0.804-0.185h0.001l0,0C18.52,19.956,20.438,17.828,20.891,15.195z M8,14c0-0.514,0.072-1.011,0.194-1.487
		l4.319-4.318C12.99,8.072,13.486,8,14,8c0.402,0,0.795,0.041,1.176,0.117l-7.059,7.059C8.042,14.796,8,14.402,8,14z M8.446,16.262
		l7.816-7.816c0.588,0.241,1.131,0.572,1.608,0.978l-8.447,8.448C9.018,17.393,8.687,16.851,8.446,16.262z M18.578,10.13
		c0.404,0.479,0.735,1.021,0.977,1.608l-7.815,7.816c-0.589-0.241-1.131-0.572-1.609-0.977L18.578,10.13z M12.825,19.883
		l7.058-7.059C19.959,13.205,20,13.598,20,14c0,0.514-0.072,1.011-0.194,1.487l-4.317,4.318C15.011,19.928,14.514,20,14,20
		C13.598,20,13.205,19.959,12.825,19.883z"/>
</g>
</svg>
