<?xml version="1.0" encoding="utf-8"?>
<!-- Generator: Adobe Illustrator 16.0.0, SVG Export Plug-In . SVG Version: 6.00 Build 0)  -->
<!DOCTYPE svg PUBLIC "-//W3C//DTD SVG 1.0//EN" "http://www.w3.org/TR/2001/REC-SVG-20010904/DTD/svg10.dtd">
<svg version="1.0" id="Layer_1" xmlns="http://www.w3.org/2000/svg" xmlns:xlink="http://www.w3.org/1999/xlink" x="0px" y="0px"
	 width="28px" height="28px" viewBox="0 0 28 28" enable-background="new 0 0 28 28" xml:space="preserve">
<g>
	<circle fill="#3C7FBB" cx="14" cy="18" r="0.5"/>
	<circle fill="#3C7FBB" cx="18" cy="18" r="0.5"/>
	<circle fill="#3C7FBB" cx="16" cy="20" r="0.5"/>
	<circle fill="#3C7FBB" cx="8" cy="16" r="0.5"/>
	<circle fill="#3C7FBB" cx="8" cy="20" r="0.5"/>
	<circle fill="#3C7FBB" cx="12" cy="20" r="0.5"/>
	<circle fill="#3C7FBB" cx="10" cy="18" r="0.5"/>
	<circle fill="#3C7FBB" cx="10" cy="10" r="0.5"/>
	<circle fill="#3C7FBB" cx="10" cy="14" r="0.5"/>
	<circle fill="#3C7FBB" cx="12" cy="12" r="0.5"/>
	<circle fill="#3C7FBB" cx="10" cy="6" r="0.5"/>
	<circle fill="#3C7FBB" cx="16" cy="8" r="0.5"/>
	<circle fill="#3C7FBB" cx="18" cy="10" r="0.5"/>
	<circle fill="#3C7FBB" cx="20" cy="20" r="0.5"/>
	<circle fill="#3C7FBB" cx="22" cy="18" r="0.5"/>
	<circle fill="#3C7FBB" cx="10" cy="22" r="0.5"/>
	<circle fill="#3C7FBB" cx="6" cy="22" r="0.5"/>
	<circle fill="#3C7FBB" cx="12" cy="8" r="0.5"/>
	<circle fill="#3C7FBB" cx="16" cy="12" r="0.5"/>
	<circle fill="#3C7FBB" cx="20" cy="12" r="0.5"/>
	<circle fill="#3C7FBB" cx="20" cy="16" r="0.5"/>
	<circle fill="#3C7FBB" cx="18" cy="14" r="0.5"/>
	<path fill="#3C7FBB" d="M24,24l2-2l-1.933-1.933l-2.275-9.859L23,9l-2-2l-1.029,1.029l-9.176-3.824L11,4L9,2L7,4l1.188,1.188
		L3.98,22.02L2,24l2,2l1.665-1.664l16.974-1.697L24,24z M19.206,8.794L19,9l1.933,1.933l2.275,9.859l-0.871,0.871l-3.847,0.385
		c0.002-0.017,0.01-0.03,0.01-0.048c0-0.276-0.224-0.5-0.5-0.5s-0.5,0.224-0.5,0.5c0,0.051,0.015,0.098,0.029,0.145l-3.502,0.35
		C14.29,22.479,14.5,22.267,14.5,22c0-0.276-0.224-0.5-0.5-0.5s-0.5,0.224-0.5,0.5c0,0.273,0.219,0.493,0.491,0.498l-8.629,0.863
		l-0.549-0.549l1.083-4.334C5.93,18.486,5.963,18.5,6,18.5c0.276,0,0.5-0.224,0.5-0.5c0-0.229-0.157-0.414-0.367-0.473l1.374-5.494
		C7.524,12.293,7.735,12.5,8,12.5c0.276,0,0.5-0.224,0.5-0.5S8.276,11.5,8,11.5c-0.182,0-0.334,0.102-0.422,0.248L9.02,5.98
		l1.01-1.01L19.206,8.794z"/>
	<path fill="#3C7FBB" d="M12.576,16.529h2.873L16.093,19h1.159l-2.42-9h-1.487l-2.597,9h1.16L12.576,16.529z M14.051,11.272h0.025
		l1.146,4.349h-2.42L14.051,11.272z"/>
</g>
</svg>
