<?xml version="1.0" encoding="utf-8"?>
<!-- Generator: Adobe Illustrator 16.0.0, SVG Export Plug-In . SVG Version: 6.00 Build 0)  -->
<!DOCTYPE svg PUBLIC "-//W3C//DTD SVG 1.0//EN" "http://www.w3.org/TR/2001/REC-SVG-20010904/DTD/svg10.dtd">
<svg version="1.0" id="Layer_1" xmlns="http://www.w3.org/2000/svg" xmlns:xlink="http://www.w3.org/1999/xlink" x="0px" y="0px"
	 width="28px" height="28px" viewBox="0 0 28 28" enable-background="new 0 0 28 28" xml:space="preserve">
<g>
	<rect x="5" y="1" fill="#3C7FBB" width="2" height="10"/>
	<rect x="1" y="1" fill="#3C7FBB" width="2" height="5"/>
	<rect x="13" y="1" fill="#3C7FBB" width="2" height="10"/>
	<rect x="9" y="1" fill="#3C7FBB" width="2" height="5"/>
	<rect x="21" y="1" fill="#3C7FBB" width="2" height="10"/>
	<rect x="17" y="1" fill="#3C7FBB" width="2" height="5"/>
	<rect x="25" y="1" fill="#3C7FBB" width="2" height="5"/>
	<path fill="#3C7FBB" d="M4.708,15.228c0.868-0.049,1.668-0.156,1.707-1.131H7V21H6.181v-5.187H4.708V15.228z"/>
	<path fill="#3C7FBB" d="M15.931,21h-3.861c0-1.287,0.722-2.164,1.492-2.828l0.565-0.478c0.556-0.478,0.916-0.896,0.916-1.657
		c0-0.595-0.263-1.238-1.004-1.238c-1.062,0-1.092,1.103-1.092,1.491h-0.858c0-1.307,0.546-2.193,1.96-2.193
		c1.6,0,1.853,1.238,1.853,1.843c0,1.054-0.438,1.608-1.209,2.272l-0.976,0.848c-0.38,0.322-0.652,0.722-0.75,1.18h2.964V21z"/>
	<path fill="#3C7FBB" d="M21.415,17.109h0.429c0.731,0,1.054-0.526,1.054-1.219c0-0.634-0.234-1.15-0.897-1.15
		c-0.906,0-0.994,0.839-0.994,1.345h-0.858c0-1.179,0.556-1.988,1.833-1.988c1.443,0,1.774,1.024,1.774,1.794
		c0,0.692-0.351,1.307-1.072,1.482v0.019c0.78,0.156,1.277,0.654,1.277,1.609c0,1.258-0.634,2.135-1.96,2.135
		c-1.853,0-1.96-1.618-1.96-1.92v-0.088h0.858c0,0.634,0.312,1.365,1.102,1.365c0.507,0,1.102-0.254,1.102-1.424
		c0-0.81-0.39-1.316-1.248-1.316h-0.438V17.109z"/>
</g>
</svg>
