<?xml version="1.0" encoding="utf-8"?>
<!-- Generator: Adobe Illustrator 16.0.0, SVG Export Plug-In . SVG Version: 6.00 Build 0)  -->
<!DOCTYPE svg PUBLIC "-//W3C//DTD SVG 1.0//EN" "http://www.w3.org/TR/2001/REC-SVG-20010904/DTD/svg10.dtd">
<svg version="1.0" id="Layer_1" xmlns="http://www.w3.org/2000/svg" xmlns:xlink="http://www.w3.org/1999/xlink" x="0px" y="0px"
	 width="24px" height="24px" viewBox="0 0 24 24" enable-background="new 0 0 24 24" xml:space="preserve">
<g>
	<path fill="#BEBEC1" d="M12,4c-4.418,0-8,3.582-8,8s3.582,8,8,8s8-3.582,8-8S16.418,4,12,4z M12.875,17.014
		c-0.21,0.207-0.501,0.311-0.875,0.311c-0.383,0-0.679-0.102-0.889-0.305c-0.21-0.202-0.314-0.488-0.314-0.857
		c0-0.383,0.103-0.672,0.308-0.868S11.608,15,12,15c0.378,0,0.671,0.1,0.879,0.301c0.207,0.201,0.311,0.488,0.311,0.861
		C13.189,16.521,13.085,16.806,12.875,17.014z M15.131,10.782c-0.228,0.364-0.661,0.774-1.299,1.23
		c-0.438,0.323-0.715,0.569-0.83,0.738c-0.117,0.169-0.175,0.39-0.175,0.663v0.41h-1.812v-0.506c0-0.438,0.094-0.818,0.28-1.142
		s0.528-0.667,1.025-1.032c0.479-0.342,0.794-0.619,0.946-0.834c0.153-0.215,0.229-0.453,0.229-0.718
		c0-0.296-0.109-0.522-0.328-0.677s-0.524-0.232-0.916-0.232c-0.684,0-1.463,0.223-2.338,0.67L9.17,7.856
		c1.017-0.569,2.094-0.854,3.233-0.854c0.938,0,1.685,0.226,2.239,0.677c0.553,0.451,0.83,1.053,0.83,1.805
		C15.473,9.984,15.358,10.418,15.131,10.782z"/>
</g>
</svg>
