<?xml version="1.0" encoding="utf-8"?>
<!-- Generator: Adobe Illustrator 16.0.0, SVG Export Plug-In . SVG Version: 6.00 Build 0)  -->
<!DOCTYPE svg PUBLIC "-//W3C//DTD SVG 1.0//EN" "http://www.w3.org/TR/2001/REC-SVG-20010904/DTD/svg10.dtd">
<svg version="1.0" id="Layer_1" xmlns="http://www.w3.org/2000/svg" xmlns:xlink="http://www.w3.org/1999/xlink" x="0px" y="0px"
	 width="24px" height="24px" viewBox="0 0 24 24" enable-background="new 0 0 24 24" xml:space="preserve">
<path fill="#BEBEC1" d="M19.924,4.62c-0.049-0.121-0.122-0.232-0.217-0.327s-0.206-0.168-0.327-0.218C19.258,4.025,19.129,4,19,4h-4
	c-0.553,0-1,0.447-1,1s0.447,1,1,1h1.586l-5.294,5.292c-0.391,0.391-0.391,1.023,0,1.414c0.195,0.195,0.451,0.293,0.707,0.293
	s0.512-0.098,0.707-0.293L18,7.414L17.999,9c0,0.552,0.447,1,1,1c0.552,0,1-0.447,1-1L20,5C20,4.871,19.975,4.741,19.924,4.62z"/>
<path fill="#BEBEC1" d="M17,11v6H7V7h6V6.999c0-0.553-0.447-1-1-1H7c-0.553,0-1,0.447-1,1v10c0,0.553,0.447,1,1,1h10
	c0.553,0,1-0.447,1-1V12C18,11.447,17.553,11,17,11z"/>
</svg>
