<?xml version="1.0" encoding="utf-8"?>
<!-- Generator: Adobe Illustrator 16.0.0, SVG Export Plug-In . SVG Version: 6.00 Build 0)  -->
<!DOCTYPE svg PUBLIC "-//W3C//DTD SVG 1.0//EN" "http://www.w3.org/TR/2001/REC-SVG-20010904/DTD/svg10.dtd">
<svg version="1.0" id="Layer_1" xmlns="http://www.w3.org/2000/svg" xmlns:xlink="http://www.w3.org/1999/xlink" x="0px" y="0px"
	 width="202px" height="51px" viewBox="0 0 202 51" enable-background="new 0 0 202 51" xml:space="preserve">
<g>
	<g>
		<g>
			<polygon fill="#A6CE39" points="55.339,25.04 63.592,25.04 64.166,26.633 58.529,26.633 63.432,40.131 97.382,40.131 
				79.44,26.633 73.802,26.633 73.206,25.04 80.555,25.04 108.6,43.262 60.729,43.262 			"/>
		</g>
		<g>
			<path fill-rule="evenodd" clip-rule="evenodd" fill="#FFFFFF" d="M11.733,1.044c2.655,0,6.307,0.554,7.628,0.881v3.782
				c-2.648-0.965-5.235-1.555-8.273-1.555c-3.526,0-6.043,1.92-6.043,4.812c0,3.086,2.745,4.332,5.111,5.604
				c4.936,2.653,11.408,4.854,11.408,11.826c0,7.096-6.471,9.881-12.384,9.881c-2.584,0-5.654-0.441-8.229-1.047v-3.814
				c2.059,0.639,5.694,1.621,8.93,1.621c4.311,0,6.788-2.357,6.788-5.59c0-8.263-16.069-7.05-16.069-17.721
				C0.6,4.448,4.898,1.044,11.733,1.044z"/>
			<path fill-rule="evenodd" clip-rule="evenodd" fill="#FFFFFF" d="M45.602,36L58.43,1.32h3.205l11.497,28.473
				c1.388,3.439,1.955,4.918,4.816,4.918L78.696,36h-8.724L59.239,8.417L49.024,36H45.602z"/>
			<path fill-rule="evenodd" clip-rule="evenodd" fill="#FFFFFF" d="M43.44,36H24V1.32h4.794v27.284
				c0,1.967,0.235,4.186,3.296,4.186h12.537L43.44,36z"/>
		</g>
	</g>
	<g>
		<g>
			<path fill-rule="evenodd" clip-rule="evenodd" fill="#FFFFFF" d="M138.635,18.539v3.911c-0.291,0.223-1.207,0.703-2.424,0.703
				c-2.303,0-3.285-1.721-3.285-3.988c0-2.469,0.85-3.967,3.051-3.967c1.799,0,2.568,0.895,2.568,2.156h-1.451
				c0-0.559-0.279-1.229-1.117-1.229c-1.33,0-1.609,1.43-1.609,3.039c0,1.408,0.279,3.061,1.844,3.061
				c0.625,0,0.994-0.167,1.117-0.301v-2.459h-1.453v-0.927H138.635z"/>
			<polygon fill-rule="evenodd" clip-rule="evenodd" fill="#FFFFFF" points="125.906,23.03 125.906,15.321 127.514,15.321 
				130.486,20.997 130.486,15.321 131.705,15.321 131.705,23.03 130.24,23.03 127.123,17.075 127.123,23.03 			"/>
			<rect x="122.918" y="15.321" fill-rule="evenodd" clip-rule="evenodd" fill="#FFFFFF" width="1.309" height="7.709"/>
			<polygon fill-rule="evenodd" clip-rule="evenodd" fill="#FFFFFF" points="166.357,23.03 166.357,15.321 170.859,15.321 
				170.859,16.315 167.664,16.315 167.664,18.539 170.691,18.539 170.691,19.534 167.664,19.534 167.664,22.036 170.949,22.036 
				170.949,23.03 			"/>
			<g>
				<path fill-rule="evenodd" clip-rule="evenodd" fill="#FFFFFF" d="M121.082,14.495v1.352c-0.576-0.225-1.289-0.551-2.166-0.551
					c-0.727,0-1.301,0.326-1.301,1.064c0,1.526,4.117,1.752,4.117,4.355c0,1.614-1.303,2.453-3.18,2.453
					c-1.113,0-2.127-0.301-2.391-0.363v-1.514c0.514,0.312,1.352,0.838,2.441,0.838c1.15,0,1.514-0.639,1.514-1.201
					c0-1.878-4.117-1.99-4.117-4.443c0-1.54,1.34-2.229,2.967-2.229C119.93,14.256,120.77,14.432,121.082,14.495z"/>
			</g>
			<path fill-rule="evenodd" clip-rule="evenodd" fill="#FFFFFF" d="M139.42,23.03l2.637-7.709h1.574l2.627,7.709h-1.363
				l-0.67-2.089h-2.771l-0.67,2.089H139.42z M142.828,16.561l-1.062,3.385h2.145l-1.061-3.385H142.828z"/>
			<path fill-rule="evenodd" clip-rule="evenodd" fill="#FFFFFF" d="M147.148,23.03v-7.709h1.988c1.195,0,2.703,0.179,2.703,2.224
				c0,1.843-1.631,2.2-2.703,2.2h-0.682v3.285H147.148z M148.455,16.249v2.569h0.682c0.781,0,1.373-0.392,1.373-1.273
				c0-0.995-0.514-1.296-1.373-1.296H148.455z"/>
			<path fill-rule="evenodd" clip-rule="evenodd" fill="#FFFFFF" d="M155.762,23.153c-2.412,0-3.117-1.731-3.117-3.978
				c0-2.245,0.705-3.978,3.117-3.978c2.402,0,3.117,1.732,3.117,3.978C158.879,21.421,158.164,23.153,155.762,23.153z
				 M154.086,19.175c0,1.643,0.348,3.05,1.676,3.05c1.318,0,1.676-1.407,1.676-3.05c0-1.642-0.357-3.05-1.676-3.05
				C154.434,16.125,154.086,17.534,154.086,19.175z"/>
			<path fill-rule="evenodd" clip-rule="evenodd" fill="#FFFFFF" d="M160.119,23.03v-7.709h2.336c1.451,0,2.48,0.514,2.48,2.022
				c0,1.218-0.738,1.598-1.531,1.788c1.072,0.256,1.195,0.916,1.375,1.73l0.469,2.168h-1.33l-0.357-1.664
				c-0.268-1.229-0.424-1.643-1.619-1.643h-0.516v3.307H160.119z M161.426,16.249v2.547h0.516c0.814,0,1.664-0.168,1.664-1.307
				c0-0.805-0.414-1.24-1.15-1.24H161.426z"/>
		</g>
		<g>
			<g>
				<polygon fill-rule="evenodd" clip-rule="evenodd" fill="#FFFFFF" points="129.092,36 129.092,28.291 130.701,28.291 
					133.674,33.967 133.695,28.291 134.891,28.291 134.891,36 133.428,36 130.311,30.045 130.287,36 				"/>
				<polygon fill-rule="evenodd" clip-rule="evenodd" fill="#FFFFFF" points="116,36 116,27.365 117.463,27.365 117.463,34.887 
					120.855,34.887 120.855,36 				"/>
				<path fill-rule="evenodd" clip-rule="evenodd" fill="#FFFFFF" d="M121.363,36L124,28.291h1.576L128.201,36h-1.363l-0.67-2.09
					h-2.77L122.727,36H121.363z M124.771,29.531l-1.061,3.385h2.145l-1.061-3.385H124.771z"/>
				<path fill-rule="evenodd" clip-rule="evenodd" fill="#FFFFFF" d="M136.57,36v-7.709h1.91c2.469,0,3.387,1.072,3.387,3.832
					c0,3.564-1.789,3.877-3.387,3.877H136.57z M137.877,29.217v5.855h0.604c1.318,0,1.945-0.582,1.945-2.949
					c0-1.877-0.324-2.906-1.945-2.906H137.877z"/>
			</g>
			<g>
				<polygon fill-rule="evenodd" clip-rule="evenodd" fill="#FFFFFF" points="196.746,36 196.746,32.424 194.209,28.291 
					195.695,28.291 197.404,31.061 199.113,28.291 200.6,28.291 198.053,32.424 198.053,36 				"/>
				<path fill-rule="evenodd" clip-rule="evenodd" fill="#FFFFFF" d="M158.85,28.291v5.352c0,1.697-1.016,2.48-2.67,2.48
					c-1.586,0-2.682-0.783-2.682-2.48v-5.352h1.307v5.352c0,0.883,0.348,1.553,1.375,1.553c1.016,0,1.363-0.67,1.363-1.553v-5.352
					H158.85z"/>
				<polygon fill-rule="evenodd" clip-rule="evenodd" fill="#FFFFFF" points="161.818,36 161.818,29.285 159.885,29.285 
					159.885,28.291 165.059,28.291 165.059,29.285 163.125,29.285 163.125,36 				"/>
				<polygon fill-rule="evenodd" clip-rule="evenodd" fill="#FFFFFF" points="166.094,36 166.094,28.291 167.4,28.291 167.4,31.486 
					170.172,31.486 170.172,28.291 171.479,28.291 171.479,36 170.172,36 170.172,32.48 167.4,32.48 167.4,36 				"/>
				<rect x="186.326" y="28.291" fill-rule="evenodd" clip-rule="evenodd" fill="#FFFFFF" width="1.307" height="7.709"/>
				<polygon fill-rule="evenodd" clip-rule="evenodd" fill="#FFFFFF" points="190.602,36 190.602,29.285 188.668,29.285 
					188.668,28.291 193.842,28.291 193.842,29.285 191.908,29.285 191.908,36 				"/>
				<path fill-rule="evenodd" clip-rule="evenodd" fill="#FFFFFF" d="M180.09,36v-7.709h2.334c1.453,0,2.48,0.514,2.48,2.021
					c0,1.219-0.736,1.598-1.531,1.787c1.074,0.258,1.195,0.916,1.375,1.732L185.217,36h-1.33l-0.357-1.666
					c-0.268-1.229-0.424-1.643-1.619-1.643h-0.514V36H180.09z M181.396,29.217v2.549h0.514c0.816,0,1.664-0.168,1.664-1.309
					c0-0.803-0.412-1.24-1.15-1.24H181.396z"/>
				<path fill-rule="evenodd" clip-rule="evenodd" fill="#FFFFFF" d="M175.732,36.123c-2.414,0-3.117-1.732-3.117-3.979
					s0.703-3.977,3.117-3.977c2.402,0,3.117,1.73,3.117,3.977S178.135,36.123,175.732,36.123z M174.057,32.145
					c0,1.643,0.346,3.051,1.676,3.051c1.318,0,1.676-1.408,1.676-3.051s-0.357-3.051-1.676-3.051
					C174.402,29.094,174.057,30.502,174.057,32.145z"/>
				<path fill-rule="evenodd" clip-rule="evenodd" fill="#FFFFFF" d="M149.145,28.754l-1.189,3.791h2.402l-1.188-3.791H149.145z
					 M145.328,36l2.953-8.635h1.764L152.986,36h-1.527l-0.752-2.34h-3.102L146.854,36H145.328z"/>
			</g>
		</g>
	</g>
</g>
</svg>
